<?xml version="1.0" encoding="UTF-8" standalone="no"?>
<!DOCTYPE svg PUBLIC "-//W3C//DTD SVG 1.1//EN"
 "http://www.w3.org/Graphics/SVG/1.1/DTD/svg11.dtd">
<!-- Generated by graphviz version 2.43.0 (0)
 -->
<!-- Title: %3 Pages: 1 -->
<svg width="786pt" height="95pt"
 viewBox="0.00 0.00 786.00 94.53" xmlns="http://www.w3.org/2000/svg" xmlns:xlink="http://www.w3.org/1999/xlink">
<g id="graph0" class="graph" transform="scale(1 1) rotate(0) translate(4 90.53)">
<title>%3</title>
<polygon fill="white" stroke="transparent" points="-4,4 -4,-90.53 782,-90.53 782,4 -4,4"/>
<!-- &#45;1 -->
<g id="node1" class="node">
<title>&#45;1</title>
<polygon fill="lightgray" stroke="black" points="264,-86.53 238,-86.53 238,-68.53 264,-68.53 264,-86.53"/>
<text text-anchor="middle" x="251" y="-75.33" font-family="Times,serif" font-size="9.00">&#45;1</text>
</g>
<!-- 0 -->
<g id="node18" class="node">
<title>0</title>
<ellipse fill="lightblue" stroke="black" cx="154" cy="-16.26" rx="16.03" ry="16.03"/>
<text text-anchor="middle" x="154" y="-14.06" font-family="Times,serif" font-size="9.00">0</text>
</g>
<!-- &#45;1&#45;&gt;0 -->
<g id="edge6" class="edge">
<title>&#45;1&#45;&gt;0</title>
<path fill="none" stroke="green" stroke-width="0.2" d="M237.92,-68.53C222.1,-58.87 195.22,-42.45 176.15,-30.8"/>
<polygon fill="green" stroke="green" stroke-width="0.2" points="177.86,-27.74 167.5,-25.51 174.21,-33.71 177.86,-27.74"/>
</g>
<!-- 1 -->
<g id="node19" class="node">
<title>1</title>
<ellipse fill="lightblue" stroke="black" cx="339" cy="-16.26" rx="16.03" ry="16.03"/>
<text text-anchor="middle" x="339" y="-14.06" font-family="Times,serif" font-size="9.00">1</text>
</g>
<!-- &#45;1&#45;&gt;1 -->
<g id="edge7" class="edge">
<title>&#45;1&#45;&gt;1</title>
<path fill="none" stroke="green" stroke-width="0.43" d="M263.24,-68.29C277.1,-58.95 299.98,-43.54 316.98,-32.09"/>
<polygon fill="green" stroke="green" stroke-width="0.43" points="319.38,-34.7 325.72,-26.21 315.47,-28.89 319.38,-34.7"/>
</g>
<!-- &#45;2 -->
<g id="node2" class="node">
<title>&#45;2</title>
<polygon fill="lightgray" stroke="black" points="540,-86.53 514,-86.53 514,-68.53 540,-68.53 540,-86.53"/>
<text text-anchor="middle" x="527" y="-75.33" font-family="Times,serif" font-size="9.00">&#45;2</text>
</g>
<!-- &#45;2&#45;&gt;1 -->
<g id="edge3" class="edge">
<title>&#45;2&#45;&gt;1</title>
<path fill="none" stroke="red" stroke-width="0.1" d="M513.54,-71.51C510.73,-70.5 507.77,-69.46 505,-68.53 455.47,-51.88 396.95,-34.29 364.29,-24.65"/>
<polygon fill="red" stroke="red" stroke-width="0.1" points="365.23,-21.28 354.64,-21.81 363.25,-27.99 365.23,-21.28"/>
</g>
<!-- &#45;3 -->
<g id="node3" class="node">
<title>&#45;3</title>
<polygon fill="lightgray" stroke="black" points="352,-86.53 326,-86.53 326,-68.53 352,-68.53 352,-86.53"/>
<text text-anchor="middle" x="339" y="-75.33" font-family="Times,serif" font-size="9.00">&#45;3</text>
</g>
<!-- &#45;3&#45;&gt;1 -->
<g id="edge14" class="edge">
<title>&#45;3&#45;&gt;1</title>
<path fill="none" stroke="red" stroke-width="0.66" d="M339,-68.29C339,-61.7 339,-52.1 339,-43"/>
<polygon fill="red" stroke="red" stroke-width="0.66" points="342.5,-42.76 339,-32.76 335.5,-42.76 342.5,-42.76"/>
</g>
<!-- &#45;4 -->
<g id="node4" class="node">
<title>&#45;4</title>
<polygon fill="lightgray" stroke="black" points="26,-86.53 0,-86.53 0,-68.53 26,-68.53 26,-86.53"/>
<text text-anchor="middle" x="13" y="-75.33" font-family="Times,serif" font-size="9.00">&#45;4</text>
</g>
<!-- &#45;4&#45;&gt;0 -->
<g id="edge9" class="edge">
<title>&#45;4&#45;&gt;0</title>
<path fill="none" stroke="green" stroke-width="0.74" d="M26.01,-71.06C49.66,-61.12 99.99,-39.96 130.01,-27.35"/>
<polygon fill="green" stroke="green" stroke-width="0.74" points="131.48,-30.53 139.34,-23.42 128.77,-24.07 131.48,-30.53"/>
</g>
<!-- &#45;5 -->
<g id="node5" class="node">
<title>&#45;5</title>
<polygon fill="lightgray" stroke="black" points="396,-86.53 370,-86.53 370,-68.53 396,-68.53 396,-86.53"/>
<text text-anchor="middle" x="383" y="-75.33" font-family="Times,serif" font-size="9.00">&#45;5</text>
</g>
<!-- &#45;5&#45;&gt;1 -->
<g id="edge12" class="edge">
<title>&#45;5&#45;&gt;1</title>
<path fill="none" stroke="green" stroke-width="0.15" d="M376.88,-68.29C371.13,-60.53 362.27,-48.6 354.56,-38.22"/>
<polygon fill="green" stroke="green" stroke-width="0.15" points="357.22,-35.94 348.45,-30 351.6,-40.11 357.22,-35.94"/>
</g>
<!-- &#45;6 -->
<g id="node6" class="node">
<title>&#45;6</title>
<polygon fill="lightgray" stroke="black" points="584,-86.53 558,-86.53 558,-68.53 584,-68.53 584,-86.53"/>
<text text-anchor="middle" x="571" y="-75.33" font-family="Times,serif" font-size="9.00">&#45;6</text>
</g>
<!-- &#45;7 -->
<g id="node7" class="node">
<title>&#45;7</title>
<polygon fill="lightgray" stroke="black" points="70,-86.53 44,-86.53 44,-68.53 70,-68.53 70,-86.53"/>
<text text-anchor="middle" x="57" y="-75.33" font-family="Times,serif" font-size="9.00">&#45;7</text>
</g>
<!-- &#45;7&#45;&gt;0 -->
<g id="edge13" class="edge">
<title>&#45;7&#45;&gt;0</title>
<path fill="none" stroke="red" stroke-width="0.45" d="M70.08,-68.53C85.9,-58.87 112.78,-42.45 131.85,-30.8"/>
<polygon fill="red" stroke="red" stroke-width="0.45" points="133.79,-33.71 140.5,-25.51 130.14,-27.74 133.79,-33.71"/>
</g>
<!-- &#45;8 -->
<g id="node8" class="node">
<title>&#45;8</title>
<polygon fill="lightgray" stroke="black" points="628,-86.53 602,-86.53 602,-68.53 628,-68.53 628,-86.53"/>
<text text-anchor="middle" x="615" y="-75.33" font-family="Times,serif" font-size="9.00">&#45;8</text>
</g>
<!-- &#45;9 -->
<g id="node9" class="node">
<title>&#45;9</title>
<polygon fill="lightgray" stroke="black" points="308,-86.53 282,-86.53 282,-68.53 308,-68.53 308,-86.53"/>
<text text-anchor="middle" x="295" y="-75.33" font-family="Times,serif" font-size="9.00">&#45;9</text>
</g>
<!-- &#45;9&#45;&gt;0 -->
<g id="edge15" class="edge">
<title>&#45;9&#45;&gt;0</title>
<path fill="none" stroke="green" stroke-width="0.42" d="M281.99,-71.06C258.34,-61.12 208.01,-39.96 177.99,-27.35"/>
<polygon fill="green" stroke="green" stroke-width="0.42" points="179.23,-24.07 168.66,-23.42 176.52,-30.53 179.23,-24.07"/>
</g>
<!-- &#45;9&#45;&gt;1 -->
<g id="edge10" class="edge">
<title>&#45;9&#45;&gt;1</title>
<path fill="none" stroke="red" stroke-width="0.12" d="M301.12,-68.29C306.87,-60.53 315.73,-48.6 323.44,-38.22"/>
<polygon fill="red" stroke="red" stroke-width="0.12" points="326.4,-40.11 329.55,-30 320.78,-35.94 326.4,-40.11"/>
</g>
<!-- &#45;10 -->
<g id="node10" class="node">
<title>&#45;10</title>
<polygon fill="lightgray" stroke="black" points="678,-86.53 646,-86.53 646,-68.53 678,-68.53 678,-86.53"/>
<text text-anchor="middle" x="662" y="-75.33" font-family="Times,serif" font-size="9.00">&#45;10</text>
</g>
<!-- &#45;11 -->
<g id="node11" class="node">
<title>&#45;11</title>
<polygon fill="lightgray" stroke="black" points="446,-86.53 414,-86.53 414,-68.53 446,-68.53 446,-86.53"/>
<text text-anchor="middle" x="430" y="-75.33" font-family="Times,serif" font-size="9.00">&#45;11</text>
</g>
<!-- &#45;11&#45;&gt;1 -->
<g id="edge4" class="edge">
<title>&#45;11&#45;&gt;1</title>
<path fill="none" stroke="red" stroke-width="0.4" d="M417.35,-68.29C402.79,-58.81 378.63,-43.07 360.98,-31.58"/>
<polygon fill="red" stroke="red" stroke-width="0.4" points="362.72,-28.54 352.43,-26.01 358.9,-34.4 362.72,-28.54"/>
</g>
<!-- &#45;12 -->
<g id="node12" class="node">
<title>&#45;12</title>
<polygon fill="lightgray" stroke="black" points="496,-86.53 464,-86.53 464,-68.53 496,-68.53 496,-86.53"/>
<text text-anchor="middle" x="480" y="-75.33" font-family="Times,serif" font-size="9.00">&#45;12</text>
</g>
<!-- &#45;12&#45;&gt;1 -->
<g id="edge8" class="edge">
<title>&#45;12&#45;&gt;1</title>
<path fill="none" stroke="green" stroke-width="0.76" d="M463.83,-69.73C439.11,-59.34 391.78,-39.45 363.04,-27.37"/>
<polygon fill="green" stroke="green" stroke-width="0.76" points="364.29,-24.09 353.71,-23.45 361.57,-30.55 364.29,-24.09"/>
</g>
<!-- &#45;13 -->
<g id="node13" class="node">
<title>&#45;13</title>
<polygon fill="lightgray" stroke="black" points="728,-86.53 696,-86.53 696,-68.53 728,-68.53 728,-86.53"/>
<text text-anchor="middle" x="712" y="-75.33" font-family="Times,serif" font-size="9.00">&#45;13</text>
</g>
<!-- &#45;14 -->
<g id="node14" class="node">
<title>&#45;14</title>
<polygon fill="lightgray" stroke="black" points="170,-86.53 138,-86.53 138,-68.53 170,-68.53 170,-86.53"/>
<text text-anchor="middle" x="154" y="-75.33" font-family="Times,serif" font-size="9.00">&#45;14</text>
</g>
<!-- &#45;14&#45;&gt;0 -->
<g id="edge2" class="edge">
<title>&#45;14&#45;&gt;0</title>
<path fill="none" stroke="green" stroke-width="0.18" d="M154,-68.29C154,-61.7 154,-52.1 154,-43"/>
<polygon fill="green" stroke="green" stroke-width="0.18" points="157.5,-42.76 154,-32.76 150.5,-42.76 157.5,-42.76"/>
</g>
<!-- &#45;14&#45;&gt;1 -->
<g id="edge1" class="edge">
<title>&#45;14&#45;&gt;1</title>
<path fill="none" stroke="green" stroke-width="0.56" d="M170.09,-71.37C202.32,-61.05 274.97,-37.78 313.65,-25.38"/>
<polygon fill="green" stroke="green" stroke-width="0.56" points="315.14,-28.58 323.6,-22.2 313.01,-21.92 315.14,-28.58"/>
</g>
<!-- &#45;15 -->
<g id="node15" class="node">
<title>&#45;15</title>
<polygon fill="lightgray" stroke="black" points="120,-86.53 88,-86.53 88,-68.53 120,-68.53 120,-86.53"/>
<text text-anchor="middle" x="104" y="-75.33" font-family="Times,serif" font-size="9.00">&#45;15</text>
</g>
<!-- &#45;15&#45;&gt;0 -->
<g id="edge5" class="edge">
<title>&#45;15&#45;&gt;0</title>
<path fill="none" stroke="red" stroke-width="0.29" d="M110.95,-68.29C117.79,-60.18 128.5,-47.49 137.52,-36.79"/>
<polygon fill="red" stroke="red" stroke-width="0.29" points="140.23,-39.01 144,-29.11 134.88,-34.5 140.23,-39.01"/>
</g>
<!-- &#45;16 -->
<g id="node16" class="node">
<title>&#45;16</title>
<polygon fill="lightgray" stroke="black" points="220,-86.53 188,-86.53 188,-68.53 220,-68.53 220,-86.53"/>
<text text-anchor="middle" x="204" y="-75.33" font-family="Times,serif" font-size="9.00">&#45;16</text>
</g>
<!-- &#45;16&#45;&gt;0 -->
<g id="edge11" class="edge">
<title>&#45;16&#45;&gt;0</title>
<path fill="none" stroke="green" stroke-width="0.51" d="M197.05,-68.29C190.21,-60.18 179.5,-47.49 170.48,-36.79"/>
<polygon fill="green" stroke="green" stroke-width="0.51" points="173.12,-34.5 164,-29.11 167.77,-39.01 173.12,-34.5"/>
</g>
<!-- &#45;16&#45;&gt;1 -->
<g id="edge16" class="edge">
<title>&#45;16&#45;&gt;1</title>
<path fill="none" stroke="red" stroke-width="0.49" d="M220.02,-69.5C243.53,-59.17 287.56,-39.84 314.97,-27.81"/>
<polygon fill="red" stroke="red" stroke-width="0.49" points="316.49,-30.97 324.24,-23.74 313.68,-24.56 316.49,-30.97"/>
</g>
<!-- &#45;17 -->
<g id="node17" class="node">
<title>&#45;17</title>
<polygon fill="lightgray" stroke="black" points="778,-86.53 746,-86.53 746,-68.53 778,-68.53 778,-86.53"/>
<text text-anchor="middle" x="762" y="-75.33" font-family="Times,serif" font-size="9.00">&#45;17</text>
</g>
</g>
</svg>
