<?xml version="1.0" encoding="UTF-8" standalone="no"?>
<!DOCTYPE svg PUBLIC "-//W3C//DTD SVG 1.1//EN"
 "http://www.w3.org/Graphics/SVG/1.1/DTD/svg11.dtd">
<!-- Generated by graphviz version 2.43.0 (0)
 -->
<!-- Title: %3 Pages: 1 -->
<svg width="1436pt" height="148pt"
 viewBox="0.00 0.00 1436.49 148.27" xmlns="http://www.w3.org/2000/svg" xmlns:xlink="http://www.w3.org/1999/xlink">
<g id="graph0" class="graph" transform="scale(1 1) rotate(0) translate(4 144.27)">
<title>%3</title>
<polygon fill="white" stroke="transparent" points="-4,4 -4,-144.27 1432.49,-144.27 1432.49,4 -4,4"/>
<!-- Sensor Proximidad frontal -->
<g id="node1" class="node">
<title>Sensor Proximidad frontal</title>
<polygon fill="lightgray" stroke="black" points="137,-140.27 0,-140.27 0,-122.27 137,-122.27 137,-140.27"/>
<text text-anchor="middle" x="68.5" y="-129.07" font-family="Times,serif" font-size="9.00">Sensor Proximidad frontal</text>
</g>
<!-- 6170 -->
<g id="node11" class="node">
<title>6170</title>
<ellipse fill="white" stroke="black" cx="247.5" cy="-43.13" rx="28.98" ry="28.98"/>
<text text-anchor="middle" x="247.5" y="-40.93" font-family="Times,serif" font-size="9.00">6170</text>
</g>
<!-- Sensor Proximidad frontal&#45;&gt;6170 -->
<g id="edge7" class="edge">
<title>Sensor Proximidad frontal&#45;&gt;6170</title>
<path fill="none" stroke="green" stroke-width="0.28" d="M85.34,-122.16C114.3,-108.23 174.13,-79.44 212.45,-61"/>
<polygon fill="green" stroke="green" stroke-width="0.28" points="214.21,-64.04 221.7,-56.55 211.18,-57.73 214.21,-64.04"/>
</g>
<!-- Sensor Proximidad frontal derecho -->
<g id="node2" class="node">
<title>Sensor Proximidad frontal derecho</title>
<polygon fill="lightgray" stroke="black" points="739.5,-140.27 561.5,-140.27 561.5,-122.27 739.5,-122.27 739.5,-140.27"/>
<text text-anchor="middle" x="650.5" y="-129.07" font-family="Times,serif" font-size="9.00">Sensor Proximidad frontal derecho</text>
</g>
<!-- velocidad -->
<g id="node10" class="node">
<title>velocidad</title>
<ellipse fill="lightblue" stroke="black" cx="748.5" cy="-43.13" rx="43.27" ry="43.27"/>
<text text-anchor="middle" x="748.5" y="-40.93" font-family="Times,serif" font-size="9.00">velocidad</text>
</g>
<!-- Sensor Proximidad frontal derecho&#45;&gt;velocidad -->
<g id="edge2" class="edge">
<title>Sensor Proximidad frontal derecho&#45;&gt;velocidad</title>
<path fill="none" stroke="green" stroke-width="0.37" d="M659.9,-122.01C671.21,-112.06 690.95,-94.71 708.93,-78.91"/>
<polygon fill="green" stroke="green" stroke-width="0.37" points="711.3,-81.49 716.5,-72.26 706.68,-76.23 711.3,-81.49"/>
</g>
<!-- Sensor Proximidad frontal izquierdo -->
<g id="node3" class="node">
<title>Sensor Proximidad frontal izquierdo</title>
<polygon fill="lightgray" stroke="black" points="339.5,-140.27 155.5,-140.27 155.5,-122.27 339.5,-122.27 339.5,-140.27"/>
<text text-anchor="middle" x="247.5" y="-129.07" font-family="Times,serif" font-size="9.00">Sensor Proximidad frontal izquierdo</text>
</g>
<!-- Sensor Proximidad frontal izquierdo&#45;&gt;6170 -->
<g id="edge4" class="edge">
<title>Sensor Proximidad frontal izquierdo&#45;&gt;6170</title>
<path fill="none" stroke="red" stroke-width="0.78" d="M247.5,-122.01C247.5,-112.77 247.5,-97.15 247.5,-82.32"/>
<polygon fill="red" stroke="red" stroke-width="0.78" points="251,-82.26 247.5,-72.26 244,-82.26 251,-82.26"/>
</g>
<!-- Sensor Proximidad derecho -->
<g id="node4" class="node">
<title>Sensor Proximidad derecho</title>
<polygon fill="lightgray" stroke="black" points="1099.5,-140.27 955.5,-140.27 955.5,-122.27 1099.5,-122.27 1099.5,-140.27"/>
<text text-anchor="middle" x="1027.5" y="-129.07" font-family="Times,serif" font-size="9.00">Sensor Proximidad derecho</text>
</g>
<!-- Sensor Proximidad izquierdo -->
<g id="node5" class="node">
<title>Sensor Proximidad izquierdo</title>
<polygon fill="lightgray" stroke="black" points="1267.5,-140.27 1117.5,-140.27 1117.5,-122.27 1267.5,-122.27 1267.5,-140.27"/>
<text text-anchor="middle" x="1192.5" y="-129.07" font-family="Times,serif" font-size="9.00">Sensor Proximidad izquierdo</text>
</g>
<!-- Sensor Proximidad trasero -->
<g id="node6" class="node">
<title>Sensor Proximidad trasero</title>
<polygon fill="lightgray" stroke="black" points="1425.5,-140.27 1285.5,-140.27 1285.5,-122.27 1425.5,-122.27 1425.5,-140.27"/>
<text text-anchor="middle" x="1355.5" y="-129.07" font-family="Times,serif" font-size="9.00">Sensor Proximidad trasero</text>
</g>
<!-- direccion -->
<g id="node9" class="node">
<title>direccion</title>
<ellipse fill="lightblue" stroke="black" cx="1310.5" cy="-43.13" rx="42.35" ry="42.35"/>
<text text-anchor="middle" x="1310.5" y="-40.93" font-family="Times,serif" font-size="9.00">direccion</text>
</g>
<!-- Sensor Proximidad trasero&#45;&gt;direccion -->
<g id="edge5" class="edge">
<title>Sensor Proximidad trasero&#45;&gt;direccion</title>
<path fill="none" stroke="red" stroke-width="0.42" d="M1351.19,-122.01C1347.18,-114.35 1340.89,-102.31 1334.44,-89.96"/>
<polygon fill="red" stroke="red" stroke-width="0.42" points="1337.48,-88.22 1329.75,-80.98 1331.28,-91.46 1337.48,-88.22"/>
</g>
<!-- 6797 -->
<g id="node12" class="node">
<title>6797</title>
<ellipse fill="white" stroke="black" cx="1399.5" cy="-43.13" rx="28.98" ry="28.98"/>
<text text-anchor="middle" x="1399.5" y="-40.93" font-family="Times,serif" font-size="9.00">6797</text>
</g>
<!-- Sensor Proximidad trasero&#45;&gt;6797 -->
<g id="edge6" class="edge">
<title>Sensor Proximidad trasero&#45;&gt;6797</title>
<path fill="none" stroke="green" stroke-width="0.61" d="M1359.72,-122.01C1364.86,-111.94 1373.88,-94.3 1382.02,-78.34"/>
<polygon fill="green" stroke="green" stroke-width="0.61" points="1385.25,-79.72 1386.69,-69.22 1379.02,-76.53 1385.25,-79.72"/>
</g>
<!-- Sensor Proximidad trasero derecho -->
<g id="node7" class="node">
<title>Sensor Proximidad trasero derecho</title>
<polygon fill="lightgray" stroke="black" points="937.5,-140.27 757.5,-140.27 757.5,-122.27 937.5,-122.27 937.5,-140.27"/>
<text text-anchor="middle" x="847.5" y="-129.07" font-family="Times,serif" font-size="9.00">Sensor Proximidad trasero derecho</text>
</g>
<!-- Sensor Proximidad trasero derecho&#45;&gt;velocidad -->
<g id="edge1" class="edge">
<title>Sensor Proximidad trasero derecho&#45;&gt;velocidad</title>
<path fill="none" stroke="red" stroke-width="0.48" d="M838.01,-122.01C826.57,-112.06 806.63,-94.71 788.47,-78.91"/>
<polygon fill="red" stroke="red" stroke-width="0.48" points="790.67,-76.18 780.83,-72.26 786.08,-81.46 790.67,-76.18"/>
</g>
<!-- Sensor Proximidad trasero izquierdo -->
<g id="node8" class="node">
<title>Sensor Proximidad trasero izquierdo</title>
<polygon fill="lightgray" stroke="black" points="543.5,-140.27 357.5,-140.27 357.5,-122.27 543.5,-122.27 543.5,-140.27"/>
<text text-anchor="middle" x="450.5" y="-129.07" font-family="Times,serif" font-size="9.00">Sensor Proximidad trasero izquierdo</text>
</g>
<!-- Sensor Proximidad trasero izquierdo&#45;&gt;6170 -->
<g id="edge3" class="edge">
<title>Sensor Proximidad trasero izquierdo&#45;&gt;6170</title>
<path fill="none" stroke="green" stroke-width="0.31" d="M431.4,-122.16C397.54,-107.8 326.5,-77.65 283.3,-59.32"/>
<polygon fill="green" stroke="green" stroke-width="0.31" points="284.57,-56.06 274,-55.38 281.84,-62.51 284.57,-56.06"/>
</g>
</g>
</svg>
