<?xml version="1.0" encoding="utf-8" standalone="no"?>
<!DOCTYPE svg PUBLIC "-//W3C//DTD SVG 1.1//EN"
  "http://www.w3.org/Graphics/SVG/1.1/DTD/svg11.dtd">
<svg xmlns:xlink="http://www.w3.org/1999/xlink" width="460.8pt" height="345.6pt" viewBox="0 0 460.8 345.6" xmlns="http://www.w3.org/2000/svg" version="1.1">
 <metadata>
  <rdf:RDF xmlns:dc="http://purl.org/dc/elements/1.1/" xmlns:cc="http://creativecommons.org/ns#" xmlns:rdf="http://www.w3.org/1999/02/22-rdf-syntax-ns#">
   <cc:Work>
    <dc:type rdf:resource="http://purl.org/dc/dcmitype/StillImage"/>
    <dc:date>2022-07-09T20:17:46.643755</dc:date>
    <dc:format>image/svg+xml</dc:format>
    <dc:creator>
     <cc:Agent>
      <dc:title>Matplotlib v3.5.2, https://matplotlib.org/</dc:title>
     </cc:Agent>
    </dc:creator>
   </cc:Work>
  </rdf:RDF>
 </metadata>
 <defs>
  <style type="text/css">*{stroke-linejoin: round; stroke-linecap: butt}</style>
 </defs>
 <g id="figure_1">
  <g id="patch_1">
   <path d="M 0 345.6 
L 460.8 345.6 
L 460.8 0 
L 0 0 
z
" style="fill: #ffffff"/>
  </g>
  <g id="axes_1">
   <g id="patch_2">
    <path d="M 57.6 307.584 
L 414.72 307.584 
L 414.72 41.472 
L 57.6 41.472 
z
" style="fill: #ffffff"/>
   </g>
   <g id="PolyCollection_1">
    <path d="M 73.832727 100.975304 
L 73.832727 307.584 
L 78.219951 307.584 
L 82.607174 307.584 
L 86.994398 307.584 
L 91.381622 307.584 
L 95.768845 307.584 
L 100.156069 307.584 
L 104.543292 307.584 
L 108.930516 307.584 
L 113.31774 307.584 
L 117.704963 307.584 
L 122.092187 307.584 
L 126.47941 307.584 
L 130.866634 307.584 
L 135.253857 307.584 
L 139.641081 307.584 
L 144.028305 307.584 
L 148.415528 307.584 
L 152.802752 307.584 
L 157.189975 307.584 
L 161.577199 307.584 
L 165.964423 307.584 
L 170.351646 307.584 
L 174.73887 307.584 
L 179.126093 307.584 
L 183.513317 307.584 
L 187.900541 307.584 
L 192.287764 307.584 
L 196.674988 307.584 
L 201.062211 307.584 
L 205.449435 307.584 
L 209.836658 307.584 
L 214.223882 307.584 
L 218.611106 307.584 
L 222.998329 307.584 
L 227.385553 307.584 
L 231.772776 307.584 
L 236.16 307.584 
L 240.547224 307.584 
L 244.934447 307.584 
L 249.321671 307.584 
L 253.708894 307.584 
L 258.096118 307.584 
L 262.483342 307.584 
L 266.870565 307.584 
L 271.257789 307.584 
L 275.645012 307.584 
L 280.032236 307.584 
L 284.419459 307.584 
L 288.806683 307.584 
L 293.193907 307.584 
L 297.58113 307.584 
L 301.968354 307.584 
L 306.355577 307.584 
L 310.742801 307.584 
L 315.130025 307.584 
L 319.517248 307.584 
L 323.904472 307.584 
L 328.291695 307.584 
L 332.678919 307.584 
L 337.066143 307.584 
L 341.453366 307.584 
L 345.84059 307.584 
L 350.227813 307.584 
L 354.615037 307.584 
L 359.00226 307.584 
L 363.389484 307.584 
L 367.776708 307.584 
L 372.163931 307.584 
L 376.551155 307.584 
L 380.938378 307.584 
L 385.325602 307.584 
L 389.712826 307.584 
L 394.100049 307.584 
L 398.487273 307.584 
L 398.487273 284.857043 
L 398.487273 284.857043 
L 394.100049 284.857043 
L 389.712826 283.479652 
L 385.325602 281.413565 
L 380.938378 281.413565 
L 376.551155 278.658783 
L 372.163931 275.904 
L 367.776708 280.72487 
L 363.389484 281.413565 
L 359.00226 280.72487 
L 354.615037 282.102261 
L 350.227813 280.72487 
L 345.84059 280.72487 
L 341.453366 280.036174 
L 337.066143 280.036174 
L 332.678919 282.102261 
L 328.291695 281.413565 
L 323.904472 281.413565 
L 319.517248 281.413565 
L 315.130025 280.72487 
L 310.742801 282.102261 
L 306.355577 281.413565 
L 301.968354 281.413565 
L 297.58113 281.413565 
L 293.193907 281.413565 
L 288.806683 281.413565 
L 284.419459 281.413565 
L 280.032236 280.72487 
L 275.645012 282.790957 
L 271.257789 280.72487 
L 266.870565 280.036174 
L 262.483342 282.102261 
L 258.096118 282.790957 
L 253.708894 282.790957 
L 249.321671 282.790957 
L 244.934447 281.413565 
L 240.547224 280.72487 
L 236.16 282.102261 
L 231.772776 280.72487 
L 227.385553 281.413565 
L 222.998329 281.413565 
L 218.611106 282.102261 
L 214.223882 282.102261 
L 209.836658 283.479652 
L 205.449435 282.790957 
L 201.062211 282.102261 
L 196.674988 281.413565 
L 192.287764 282.102261 
L 187.900541 282.102261 
L 183.513317 282.790957 
L 179.126093 283.479652 
L 174.73887 282.102261 
L 170.351646 281.413565 
L 165.964423 280.72487 
L 161.577199 282.790957 
L 157.189975 283.479652 
L 152.802752 282.790957 
L 148.415528 282.102261 
L 144.028305 282.790957 
L 139.641081 281.413565 
L 135.253857 281.413565 
L 130.866634 281.413565 
L 126.47941 281.413565 
L 122.092187 282.790957 
L 117.704963 280.72487 
L 113.31774 277.281391 
L 108.930516 275.904 
L 104.543292 270.394435 
L 100.156069 264.196174 
L 95.768845 252.488348 
L 91.381622 233.893565 
L 86.994398 207.72313 
L 82.607174 176.04313 
L 78.219951 115.437913 
L 73.832727 100.975304 
z
" clip-path="url(#p5fa4a58841)" style="fill: #1f77b4"/>
   </g>
   <g id="PolyCollection_2">
    <path d="M 73.832727 100.975304 
L 73.832727 100.975304 
L 78.219951 115.437913 
L 82.607174 176.04313 
L 86.994398 207.72313 
L 91.381622 233.893565 
L 95.768845 252.488348 
L 100.156069 264.196174 
L 104.543292 270.394435 
L 108.930516 275.904 
L 113.31774 277.281391 
L 117.704963 280.72487 
L 122.092187 282.790957 
L 126.47941 281.413565 
L 130.866634 281.413565 
L 135.253857 281.413565 
L 139.641081 281.413565 
L 144.028305 282.790957 
L 148.415528 282.102261 
L 152.802752 282.790957 
L 157.189975 283.479652 
L 161.577199 282.790957 
L 165.964423 280.72487 
L 170.351646 281.413565 
L 174.73887 282.102261 
L 179.126093 283.479652 
L 183.513317 282.790957 
L 187.900541 282.102261 
L 192.287764 282.102261 
L 196.674988 281.413565 
L 201.062211 282.102261 
L 205.449435 282.790957 
L 209.836658 283.479652 
L 214.223882 282.102261 
L 218.611106 282.102261 
L 222.998329 281.413565 
L 227.385553 281.413565 
L 231.772776 280.72487 
L 236.16 282.102261 
L 240.547224 280.72487 
L 244.934447 281.413565 
L 249.321671 282.790957 
L 253.708894 282.790957 
L 258.096118 282.790957 
L 262.483342 282.102261 
L 266.870565 280.036174 
L 271.257789 280.72487 
L 275.645012 282.790957 
L 280.032236 280.72487 
L 284.419459 281.413565 
L 288.806683 281.413565 
L 293.193907 281.413565 
L 297.58113 281.413565 
L 301.968354 281.413565 
L 306.355577 281.413565 
L 310.742801 282.102261 
L 315.130025 280.72487 
L 319.517248 281.413565 
L 323.904472 281.413565 
L 328.291695 281.413565 
L 332.678919 282.102261 
L 337.066143 280.036174 
L 341.453366 280.036174 
L 345.84059 280.72487 
L 350.227813 280.72487 
L 354.615037 282.102261 
L 359.00226 280.72487 
L 363.389484 281.413565 
L 367.776708 280.72487 
L 372.163931 275.904 
L 376.551155 278.658783 
L 380.938378 281.413565 
L 385.325602 281.413565 
L 389.712826 283.479652 
L 394.100049 284.857043 
L 398.487273 284.857043 
L 398.487273 263.507478 
L 398.487273 263.507478 
L 394.100049 264.196174 
L 389.712826 262.818783 
L 385.325602 260.752696 
L 380.938378 261.441391 
L 376.551155 262.818783 
L 372.163931 262.818783 
L 367.776708 258.686609 
L 363.389484 260.752696 
L 359.00226 260.064 
L 354.615037 260.064 
L 350.227813 259.375304 
L 345.84059 259.375304 
L 341.453366 259.375304 
L 337.066143 259.375304 
L 332.678919 261.441391 
L 328.291695 260.752696 
L 323.904472 260.064 
L 319.517248 259.375304 
L 315.130025 260.064 
L 310.742801 260.752696 
L 306.355577 260.752696 
L 301.968354 260.752696 
L 297.58113 260.752696 
L 293.193907 260.752696 
L 288.806683 260.064 
L 284.419459 260.064 
L 280.032236 260.064 
L 275.645012 262.130087 
L 271.257789 260.064 
L 266.870565 259.375304 
L 262.483342 261.441391 
L 258.096118 262.130087 
L 253.708894 262.130087 
L 249.321671 261.441391 
L 244.934447 259.375304 
L 240.547224 259.375304 
L 236.16 260.752696 
L 231.772776 260.064 
L 227.385553 260.752696 
L 222.998329 260.752696 
L 218.611106 261.441391 
L 214.223882 261.441391 
L 209.836658 262.130087 
L 205.449435 261.441391 
L 201.062211 260.752696 
L 196.674988 260.752696 
L 192.287764 260.752696 
L 187.900541 261.441391 
L 183.513317 262.130087 
L 179.126093 262.130087 
L 174.73887 261.441391 
L 170.351646 260.752696 
L 165.964423 260.064 
L 161.577199 261.441391 
L 157.189975 262.130087 
L 152.802752 262.130087 
L 148.415528 261.441391 
L 144.028305 262.130087 
L 139.641081 260.064 
L 135.253857 260.064 
L 130.866634 260.752696 
L 126.47941 260.064 
L 122.092187 262.130087 
L 117.704963 259.375304 
L 113.31774 255.24313 
L 108.930516 255.24313 
L 104.543292 255.931826 
L 100.156069 240.780522 
L 95.768845 227.695304 
L 91.381622 202.902261 
L 86.994398 183.618783 
L 82.607174 151.938783 
L 78.219951 101.664 
L 73.832727 100.975304 
z
" clip-path="url(#p5fa4a58841)" style="fill: #ff7f0e"/>
   </g>
   <g id="PolyCollection_3">
    <path d="M 73.832727 100.975304 
L 73.832727 100.975304 
L 78.219951 101.664 
L 82.607174 151.938783 
L 86.994398 183.618783 
L 91.381622 202.902261 
L 95.768845 227.695304 
L 100.156069 240.780522 
L 104.543292 255.931826 
L 108.930516 255.24313 
L 113.31774 255.24313 
L 117.704963 259.375304 
L 122.092187 262.130087 
L 126.47941 260.064 
L 130.866634 260.752696 
L 135.253857 260.064 
L 139.641081 260.064 
L 144.028305 262.130087 
L 148.415528 261.441391 
L 152.802752 262.130087 
L 157.189975 262.130087 
L 161.577199 261.441391 
L 165.964423 260.064 
L 170.351646 260.752696 
L 174.73887 261.441391 
L 179.126093 262.130087 
L 183.513317 262.130087 
L 187.900541 261.441391 
L 192.287764 260.752696 
L 196.674988 260.752696 
L 201.062211 260.752696 
L 205.449435 261.441391 
L 209.836658 262.130087 
L 214.223882 261.441391 
L 218.611106 261.441391 
L 222.998329 260.752696 
L 227.385553 260.752696 
L 231.772776 260.064 
L 236.16 260.752696 
L 240.547224 259.375304 
L 244.934447 259.375304 
L 249.321671 261.441391 
L 253.708894 262.130087 
L 258.096118 262.130087 
L 262.483342 261.441391 
L 266.870565 259.375304 
L 271.257789 260.064 
L 275.645012 262.130087 
L 280.032236 260.064 
L 284.419459 260.064 
L 288.806683 260.064 
L 293.193907 260.752696 
L 297.58113 260.752696 
L 301.968354 260.752696 
L 306.355577 260.752696 
L 310.742801 260.752696 
L 315.130025 260.064 
L 319.517248 259.375304 
L 323.904472 260.064 
L 328.291695 260.752696 
L 332.678919 261.441391 
L 337.066143 259.375304 
L 341.453366 259.375304 
L 345.84059 259.375304 
L 350.227813 259.375304 
L 354.615037 260.064 
L 359.00226 260.064 
L 363.389484 260.752696 
L 367.776708 258.686609 
L 372.163931 262.818783 
L 376.551155 262.818783 
L 380.938378 261.441391 
L 385.325602 260.752696 
L 389.712826 262.818783 
L 394.100049 264.196174 
L 398.487273 263.507478 
L 398.487273 242.846609 
L 398.487273 242.846609 
L 394.100049 242.846609 
L 389.712826 242.157913 
L 385.325602 242.157913 
L 380.938378 244.224 
L 376.551155 246.978783 
L 372.163931 246.978783 
L 367.776708 230.450087 
L 363.389484 238.714435 
L 359.00226 238.025739 
L 354.615037 239.40313 
L 350.227813 238.025739 
L 345.84059 238.025739 
L 341.453366 238.025739 
L 337.066143 238.714435 
L 332.678919 239.40313 
L 328.291695 239.40313 
L 323.904472 238.714435 
L 319.517248 238.714435 
L 315.130025 238.714435 
L 310.742801 239.40313 
L 306.355577 239.40313 
L 301.968354 238.714435 
L 297.58113 239.40313 
L 293.193907 239.40313 
L 288.806683 238.714435 
L 284.419459 238.714435 
L 280.032236 238.025739 
L 275.645012 240.780522 
L 271.257789 238.714435 
L 266.870565 238.714435 
L 262.483342 240.780522 
L 258.096118 241.469217 
L 253.708894 240.780522 
L 249.321671 240.780522 
L 244.934447 238.714435 
L 240.547224 238.714435 
L 236.16 239.40313 
L 231.772776 239.40313 
L 227.385553 238.714435 
L 222.998329 239.40313 
L 218.611106 240.091826 
L 214.223882 240.091826 
L 209.836658 239.40313 
L 205.449435 239.40313 
L 201.062211 239.40313 
L 196.674988 239.40313 
L 192.287764 239.40313 
L 187.900541 240.780522 
L 183.513317 240.780522 
L 179.126093 238.714435 
L 174.73887 239.40313 
L 170.351646 240.091826 
L 165.964423 239.40313 
L 161.577199 240.091826 
L 157.189975 238.714435 
L 152.802752 240.091826 
L 148.415528 239.40313 
L 144.028305 240.091826 
L 139.641081 238.714435 
L 135.253857 238.714435 
L 130.866634 238.714435 
L 126.47941 238.714435 
L 122.092187 237.337043 
L 117.704963 235.959652 
L 113.31774 231.827478 
L 108.930516 232.516174 
L 104.543292 231.138783 
L 100.156069 215.298783 
L 95.768845 197.392696 
L 91.381622 161.580522 
L 86.994398 144.36313 
L 82.607174 111.994435 
L 78.219951 100.975304 
L 73.832727 100.975304 
z
" clip-path="url(#p5fa4a58841)" style="fill: #2ca02c"/>
   </g>
   <g id="PolyCollection_4">
    <path d="M 73.832727 100.975304 
L 73.832727 100.975304 
L 78.219951 100.975304 
L 82.607174 111.994435 
L 86.994398 144.36313 
L 91.381622 161.580522 
L 95.768845 197.392696 
L 100.156069 215.298783 
L 104.543292 231.138783 
L 108.930516 232.516174 
L 113.31774 231.827478 
L 117.704963 235.959652 
L 122.092187 237.337043 
L 126.47941 238.714435 
L 130.866634 238.714435 
L 135.253857 238.714435 
L 139.641081 238.714435 
L 144.028305 240.091826 
L 148.415528 239.40313 
L 152.802752 240.091826 
L 157.189975 238.714435 
L 161.577199 240.091826 
L 165.964423 239.40313 
L 170.351646 240.091826 
L 174.73887 239.40313 
L 179.126093 238.714435 
L 183.513317 240.780522 
L 187.900541 240.780522 
L 192.287764 239.40313 
L 196.674988 239.40313 
L 201.062211 239.40313 
L 205.449435 239.40313 
L 209.836658 239.40313 
L 214.223882 240.091826 
L 218.611106 240.091826 
L 222.998329 239.40313 
L 227.385553 238.714435 
L 231.772776 239.40313 
L 236.16 239.40313 
L 240.547224 238.714435 
L 244.934447 238.714435 
L 249.321671 240.780522 
L 253.708894 240.780522 
L 258.096118 241.469217 
L 262.483342 240.780522 
L 266.870565 238.714435 
L 271.257789 238.714435 
L 275.645012 240.780522 
L 280.032236 238.025739 
L 284.419459 238.714435 
L 288.806683 238.714435 
L 293.193907 239.40313 
L 297.58113 239.40313 
L 301.968354 238.714435 
L 306.355577 239.40313 
L 310.742801 239.40313 
L 315.130025 238.714435 
L 319.517248 238.714435 
L 323.904472 238.714435 
L 328.291695 239.40313 
L 332.678919 239.40313 
L 337.066143 238.714435 
L 341.453366 238.025739 
L 345.84059 238.025739 
L 350.227813 238.025739 
L 354.615037 239.40313 
L 359.00226 238.025739 
L 363.389484 238.714435 
L 367.776708 230.450087 
L 372.163931 246.978783 
L 376.551155 246.978783 
L 380.938378 244.224 
L 385.325602 242.157913 
L 389.712826 242.157913 
L 394.100049 242.846609 
L 398.487273 242.846609 
L 398.487273 221.497043 
L 398.487273 221.497043 
L 394.100049 222.185739 
L 389.712826 220.808348 
L 385.325602 221.497043 
L 380.938378 223.56313 
L 376.551155 225.629217 
L 372.163931 224.251826 
L 367.776708 209.789217 
L 363.389484 218.053565 
L 359.00226 217.36487 
L 354.615037 218.053565 
L 350.227813 217.36487 
L 345.84059 216.676174 
L 341.453366 217.36487 
L 337.066143 218.053565 
L 332.678919 218.053565 
L 328.291695 217.36487 
L 323.904472 218.053565 
L 319.517248 217.36487 
L 315.130025 218.053565 
L 310.742801 218.053565 
L 306.355577 218.742261 
L 301.968354 218.053565 
L 297.58113 218.742261 
L 293.193907 217.36487 
L 288.806683 218.053565 
L 284.419459 217.36487 
L 280.032236 217.36487 
L 275.645012 218.742261 
L 271.257789 218.053565 
L 266.870565 218.053565 
L 262.483342 218.053565 
L 258.096118 218.742261 
L 253.708894 218.742261 
L 249.321671 219.430957 
L 244.934447 217.36487 
L 240.547224 218.053565 
L 236.16 218.742261 
L 231.772776 218.053565 
L 227.385553 218.053565 
L 222.998329 218.742261 
L 218.611106 219.430957 
L 214.223882 218.742261 
L 209.836658 218.742261 
L 205.449435 218.742261 
L 201.062211 218.742261 
L 196.674988 218.053565 
L 192.287764 218.742261 
L 187.900541 219.430957 
L 183.513317 220.119652 
L 179.126093 218.053565 
L 174.73887 218.742261 
L 170.351646 218.742261 
L 165.964423 218.742261 
L 161.577199 218.053565 
L 157.189975 218.053565 
L 152.802752 219.430957 
L 148.415528 218.053565 
L 144.028305 218.742261 
L 139.641081 217.36487 
L 135.253857 218.053565 
L 130.866634 218.053565 
L 126.47941 218.053565 
L 122.092187 216.676174 
L 117.704963 215.298783 
L 113.31774 210.477913 
L 108.930516 209.100522 
L 104.543292 204.279652 
L 100.156069 189.128348 
L 95.768845 171.222261 
L 91.381622 132.655304 
L 86.994398 107.862261 
L 82.607174 100.975304 
L 78.219951 100.975304 
L 73.832727 100.975304 
z
" clip-path="url(#p5fa4a58841)" style="fill: #d62728"/>
   </g>
   <g id="PolyCollection_5">
    <path d="M 73.832727 100.975304 
L 73.832727 100.975304 
L 78.219951 100.975304 
L 82.607174 100.975304 
L 86.994398 107.862261 
L 91.381622 132.655304 
L 95.768845 171.222261 
L 100.156069 189.128348 
L 104.543292 204.279652 
L 108.930516 209.100522 
L 113.31774 210.477913 
L 117.704963 215.298783 
L 122.092187 216.676174 
L 126.47941 218.053565 
L 130.866634 218.053565 
L 135.253857 218.053565 
L 139.641081 217.36487 
L 144.028305 218.742261 
L 148.415528 218.053565 
L 152.802752 219.430957 
L 157.189975 218.053565 
L 161.577199 218.053565 
L 165.964423 218.742261 
L 170.351646 218.742261 
L 174.73887 218.742261 
L 179.126093 218.053565 
L 183.513317 220.119652 
L 187.900541 219.430957 
L 192.287764 218.742261 
L 196.674988 218.053565 
L 201.062211 218.742261 
L 205.449435 218.742261 
L 209.836658 218.742261 
L 214.223882 218.742261 
L 218.611106 219.430957 
L 222.998329 218.742261 
L 227.385553 218.053565 
L 231.772776 218.053565 
L 236.16 218.742261 
L 240.547224 218.053565 
L 244.934447 217.36487 
L 249.321671 219.430957 
L 253.708894 218.742261 
L 258.096118 218.742261 
L 262.483342 218.053565 
L 266.870565 218.053565 
L 271.257789 218.053565 
L 275.645012 218.742261 
L 280.032236 217.36487 
L 284.419459 217.36487 
L 288.806683 218.053565 
L 293.193907 217.36487 
L 297.58113 218.742261 
L 301.968354 218.053565 
L 306.355577 218.742261 
L 310.742801 218.053565 
L 315.130025 218.053565 
L 319.517248 217.36487 
L 323.904472 218.053565 
L 328.291695 217.36487 
L 332.678919 218.053565 
L 337.066143 218.053565 
L 341.453366 217.36487 
L 345.84059 216.676174 
L 350.227813 217.36487 
L 354.615037 218.053565 
L 359.00226 217.36487 
L 363.389484 218.053565 
L 367.776708 209.789217 
L 372.163931 224.251826 
L 376.551155 225.629217 
L 380.938378 223.56313 
L 385.325602 221.497043 
L 389.712826 220.808348 
L 394.100049 222.185739 
L 398.487273 221.497043 
L 398.487273 200.836174 
L 398.487273 200.836174 
L 394.100049 201.52487 
L 389.712826 200.147478 
L 385.325602 200.836174 
L 380.938378 202.902261 
L 376.551155 204.968348 
L 372.163931 204.968348 
L 367.776708 195.326609 
L 363.389484 197.392696 
L 359.00226 196.704 
L 354.615037 197.392696 
L 350.227813 196.704 
L 345.84059 196.015304 
L 341.453366 196.704 
L 337.066143 197.392696 
L 332.678919 197.392696 
L 328.291695 196.704 
L 323.904472 197.392696 
L 319.517248 196.704 
L 315.130025 197.392696 
L 310.742801 197.392696 
L 306.355577 198.081391 
L 301.968354 197.392696 
L 297.58113 198.081391 
L 293.193907 196.704 
L 288.806683 197.392696 
L 284.419459 196.704 
L 280.032236 196.704 
L 275.645012 198.081391 
L 271.257789 197.392696 
L 266.870565 197.392696 
L 262.483342 197.392696 
L 258.096118 198.081391 
L 253.708894 198.081391 
L 249.321671 198.770087 
L 244.934447 196.704 
L 240.547224 197.392696 
L 236.16 198.081391 
L 231.772776 197.392696 
L 227.385553 197.392696 
L 222.998329 198.081391 
L 218.611106 198.770087 
L 214.223882 198.081391 
L 209.836658 198.081391 
L 205.449435 198.081391 
L 201.062211 198.081391 
L 196.674988 197.392696 
L 192.287764 198.081391 
L 187.900541 198.770087 
L 183.513317 199.458783 
L 179.126093 197.392696 
L 174.73887 198.081391 
L 170.351646 198.081391 
L 165.964423 198.081391 
L 161.577199 197.392696 
L 157.189975 197.392696 
L 152.802752 198.770087 
L 148.415528 197.392696 
L 144.028305 198.081391 
L 139.641081 196.704 
L 135.253857 197.392696 
L 130.866634 198.081391 
L 126.47941 198.081391 
L 122.092187 196.704 
L 117.704963 195.326609 
L 113.31774 191.194435 
L 108.930516 187.750957 
L 104.543292 183.618783 
L 100.156069 167.090087 
L 95.768845 149.184 
L 91.381622 116.126609 
L 86.994398 104.418783 
L 82.607174 100.975304 
L 78.219951 100.975304 
L 73.832727 100.975304 
z
" clip-path="url(#p5fa4a58841)" style="fill: #9467bd"/>
   </g>
   <g id="PolyCollection_6">
    <path d="M 73.832727 100.975304 
L 73.832727 100.975304 
L 78.219951 100.975304 
L 82.607174 100.975304 
L 86.994398 104.418783 
L 91.381622 116.126609 
L 95.768845 149.184 
L 100.156069 167.090087 
L 104.543292 183.618783 
L 108.930516 187.750957 
L 113.31774 191.194435 
L 117.704963 195.326609 
L 122.092187 196.704 
L 126.47941 198.081391 
L 130.866634 198.081391 
L 135.253857 197.392696 
L 139.641081 196.704 
L 144.028305 198.081391 
L 148.415528 197.392696 
L 152.802752 198.770087 
L 157.189975 197.392696 
L 161.577199 197.392696 
L 165.964423 198.081391 
L 170.351646 198.081391 
L 174.73887 198.081391 
L 179.126093 197.392696 
L 183.513317 199.458783 
L 187.900541 198.770087 
L 192.287764 198.081391 
L 196.674988 197.392696 
L 201.062211 198.081391 
L 205.449435 198.081391 
L 209.836658 198.081391 
L 214.223882 198.081391 
L 218.611106 198.770087 
L 222.998329 198.081391 
L 227.385553 197.392696 
L 231.772776 197.392696 
L 236.16 198.081391 
L 240.547224 197.392696 
L 244.934447 196.704 
L 249.321671 198.770087 
L 253.708894 198.081391 
L 258.096118 198.081391 
L 262.483342 197.392696 
L 266.870565 197.392696 
L 271.257789 197.392696 
L 275.645012 198.081391 
L 280.032236 196.704 
L 284.419459 196.704 
L 288.806683 197.392696 
L 293.193907 196.704 
L 297.58113 198.081391 
L 301.968354 197.392696 
L 306.355577 198.081391 
L 310.742801 197.392696 
L 315.130025 197.392696 
L 319.517248 196.704 
L 323.904472 197.392696 
L 328.291695 196.704 
L 332.678919 197.392696 
L 337.066143 197.392696 
L 341.453366 196.704 
L 345.84059 196.015304 
L 350.227813 196.704 
L 354.615037 197.392696 
L 359.00226 196.704 
L 363.389484 197.392696 
L 367.776708 195.326609 
L 372.163931 204.968348 
L 376.551155 204.968348 
L 380.938378 202.902261 
L 385.325602 200.836174 
L 389.712826 200.147478 
L 394.100049 201.52487 
L 398.487273 200.836174 
L 398.487273 180.175304 
L 398.487273 180.175304 
L 394.100049 180.864 
L 389.712826 179.486609 
L 385.325602 180.175304 
L 380.938378 182.241391 
L 376.551155 184.307478 
L 372.163931 184.307478 
L 367.776708 173.977043 
L 363.389484 176.731826 
L 359.00226 176.04313 
L 354.615037 176.731826 
L 350.227813 176.04313 
L 345.84059 175.354435 
L 341.453366 176.04313 
L 337.066143 176.731826 
L 332.678919 176.731826 
L 328.291695 176.04313 
L 323.904472 176.731826 
L 319.517248 176.04313 
L 315.130025 176.731826 
L 310.742801 176.731826 
L 306.355577 177.420522 
L 301.968354 176.731826 
L 297.58113 177.420522 
L 293.193907 176.04313 
L 288.806683 176.731826 
L 284.419459 176.04313 
L 280.032236 176.04313 
L 275.645012 177.420522 
L 271.257789 176.731826 
L 266.870565 176.731826 
L 262.483342 176.731826 
L 258.096118 177.420522 
L 253.708894 177.420522 
L 249.321671 178.109217 
L 244.934447 176.04313 
L 240.547224 176.731826 
L 236.16 177.420522 
L 231.772776 176.731826 
L 227.385553 176.731826 
L 222.998329 177.420522 
L 218.611106 178.109217 
L 214.223882 177.420522 
L 209.836658 177.420522 
L 205.449435 177.420522 
L 201.062211 177.420522 
L 196.674988 176.731826 
L 192.287764 177.420522 
L 187.900541 178.109217 
L 183.513317 178.797913 
L 179.126093 176.731826 
L 174.73887 177.420522 
L 170.351646 177.420522 
L 165.964423 177.420522 
L 161.577199 176.731826 
L 157.189975 176.731826 
L 152.802752 178.109217 
L 148.415528 176.731826 
L 144.028305 177.420522 
L 139.641081 176.04313 
L 135.253857 176.731826 
L 130.866634 177.420522 
L 126.47941 177.420522 
L 122.092187 176.04313 
L 117.704963 174.665739 
L 113.31774 168.467478 
L 108.930516 167.090087 
L 104.543292 160.891826 
L 100.156069 147.117913 
L 95.768845 127.145739 
L 91.381622 98.909217 
L 86.994398 103.041391 
L 82.607174 100.975304 
L 78.219951 100.975304 
L 73.832727 100.975304 
z
" clip-path="url(#p5fa4a58841)" style="fill: #8c564b"/>
   </g>
   <g id="PolyCollection_7">
    <path d="M 73.832727 100.975304 
L 73.832727 100.975304 
L 78.219951 100.975304 
L 82.607174 100.975304 
L 86.994398 103.041391 
L 91.381622 98.909217 
L 95.768845 127.145739 
L 100.156069 147.117913 
L 104.543292 160.891826 
L 108.930516 167.090087 
L 113.31774 168.467478 
L 117.704963 174.665739 
L 122.092187 176.04313 
L 126.47941 177.420522 
L 130.866634 177.420522 
L 135.253857 176.731826 
L 139.641081 176.04313 
L 144.028305 177.420522 
L 148.415528 176.731826 
L 152.802752 178.109217 
L 157.189975 176.731826 
L 161.577199 176.731826 
L 165.964423 177.420522 
L 170.351646 177.420522 
L 174.73887 177.420522 
L 179.126093 176.731826 
L 183.513317 178.797913 
L 187.900541 178.109217 
L 192.287764 177.420522 
L 196.674988 176.731826 
L 201.062211 177.420522 
L 205.449435 177.420522 
L 209.836658 177.420522 
L 214.223882 177.420522 
L 218.611106 178.109217 
L 222.998329 177.420522 
L 227.385553 176.731826 
L 231.772776 176.731826 
L 236.16 177.420522 
L 240.547224 176.731826 
L 244.934447 176.04313 
L 249.321671 178.109217 
L 253.708894 177.420522 
L 258.096118 177.420522 
L 262.483342 176.731826 
L 266.870565 176.731826 
L 271.257789 176.731826 
L 275.645012 177.420522 
L 280.032236 176.04313 
L 284.419459 176.04313 
L 288.806683 176.731826 
L 293.193907 176.04313 
L 297.58113 177.420522 
L 301.968354 176.731826 
L 306.355577 177.420522 
L 310.742801 176.731826 
L 315.130025 176.731826 
L 319.517248 176.04313 
L 323.904472 176.731826 
L 328.291695 176.04313 
L 332.678919 176.731826 
L 337.066143 176.731826 
L 341.453366 176.04313 
L 345.84059 175.354435 
L 350.227813 176.04313 
L 354.615037 176.731826 
L 359.00226 176.04313 
L 363.389484 176.731826 
L 367.776708 173.977043 
L 372.163931 184.307478 
L 376.551155 184.307478 
L 380.938378 182.241391 
L 385.325602 180.175304 
L 389.712826 179.486609 
L 394.100049 180.864 
L 398.487273 180.175304 
L 398.487273 159.514435 
L 398.487273 159.514435 
L 394.100049 160.20313 
L 389.712826 158.825739 
L 385.325602 159.514435 
L 380.938378 161.580522 
L 376.551155 163.646609 
L 372.163931 163.646609 
L 367.776708 153.316174 
L 363.389484 156.070957 
L 359.00226 155.382261 
L 354.615037 156.070957 
L 350.227813 155.382261 
L 345.84059 154.693565 
L 341.453366 155.382261 
L 337.066143 156.070957 
L 332.678919 156.070957 
L 328.291695 155.382261 
L 323.904472 156.070957 
L 319.517248 155.382261 
L 315.130025 156.070957 
L 310.742801 156.070957 
L 306.355577 156.759652 
L 301.968354 156.070957 
L 297.58113 156.070957 
L 293.193907 155.382261 
L 288.806683 156.070957 
L 284.419459 155.382261 
L 280.032236 155.382261 
L 275.645012 156.070957 
L 271.257789 156.070957 
L 266.870565 156.070957 
L 262.483342 156.070957 
L 258.096118 156.070957 
L 253.708894 156.759652 
L 249.321671 156.759652 
L 244.934447 155.382261 
L 240.547224 156.070957 
L 236.16 156.759652 
L 231.772776 156.070957 
L 227.385553 156.070957 
L 222.998329 156.759652 
L 218.611106 157.448348 
L 214.223882 156.759652 
L 209.836658 156.759652 
L 205.449435 156.070957 
L 201.062211 156.759652 
L 196.674988 156.070957 
L 192.287764 156.759652 
L 187.900541 156.759652 
L 183.513317 158.137043 
L 179.126093 156.070957 
L 174.73887 156.759652 
L 170.351646 156.759652 
L 165.964423 156.759652 
L 161.577199 156.070957 
L 157.189975 156.070957 
L 152.802752 157.448348 
L 148.415528 156.070957 
L 144.028305 156.759652 
L 139.641081 155.382261 
L 135.253857 156.070957 
L 130.866634 156.759652 
L 126.47941 156.759652 
L 122.092187 154.693565 
L 117.704963 154.00487 
L 113.31774 148.495304 
L 108.930516 147.117913 
L 104.543292 140.919652 
L 100.156069 126.457043 
L 95.768845 104.418783 
L 91.381622 82.380522 
L 86.994398 100.975304 
L 82.607174 100.975304 
L 78.219951 100.975304 
L 73.832727 100.975304 
z
" clip-path="url(#p5fa4a58841)" style="fill: #e377c2"/>
   </g>
   <g id="PolyCollection_8">
    <path d="M 73.832727 100.975304 
L 73.832727 100.975304 
L 78.219951 100.975304 
L 82.607174 100.975304 
L 86.994398 100.975304 
L 91.381622 82.380522 
L 95.768845 104.418783 
L 100.156069 126.457043 
L 104.543292 140.919652 
L 108.930516 147.117913 
L 113.31774 148.495304 
L 117.704963 154.00487 
L 122.092187 154.693565 
L 126.47941 156.759652 
L 130.866634 156.759652 
L 135.253857 156.070957 
L 139.641081 155.382261 
L 144.028305 156.759652 
L 148.415528 156.070957 
L 152.802752 157.448348 
L 157.189975 156.070957 
L 161.577199 156.070957 
L 165.964423 156.759652 
L 170.351646 156.759652 
L 174.73887 156.759652 
L 179.126093 156.070957 
L 183.513317 158.137043 
L 187.900541 156.759652 
L 192.287764 156.759652 
L 196.674988 156.070957 
L 201.062211 156.759652 
L 205.449435 156.070957 
L 209.836658 156.759652 
L 214.223882 156.759652 
L 218.611106 157.448348 
L 222.998329 156.759652 
L 227.385553 156.070957 
L 231.772776 156.070957 
L 236.16 156.759652 
L 240.547224 156.070957 
L 244.934447 155.382261 
L 249.321671 156.759652 
L 253.708894 156.759652 
L 258.096118 156.070957 
L 262.483342 156.070957 
L 266.870565 156.070957 
L 271.257789 156.070957 
L 275.645012 156.070957 
L 280.032236 155.382261 
L 284.419459 155.382261 
L 288.806683 156.070957 
L 293.193907 155.382261 
L 297.58113 156.070957 
L 301.968354 156.070957 
L 306.355577 156.759652 
L 310.742801 156.070957 
L 315.130025 156.070957 
L 319.517248 155.382261 
L 323.904472 156.070957 
L 328.291695 155.382261 
L 332.678919 156.070957 
L 337.066143 156.070957 
L 341.453366 155.382261 
L 345.84059 154.693565 
L 350.227813 155.382261 
L 354.615037 156.070957 
L 359.00226 155.382261 
L 363.389484 156.070957 
L 367.776708 153.316174 
L 372.163931 163.646609 
L 376.551155 163.646609 
L 380.938378 161.580522 
L 385.325602 159.514435 
L 389.712826 158.825739 
L 394.100049 160.20313 
L 398.487273 159.514435 
L 398.487273 138.853565 
L 398.487273 138.853565 
L 394.100049 139.542261 
L 389.712826 138.16487 
L 385.325602 138.16487 
L 380.938378 140.230957 
L 376.551155 142.297043 
L 372.163931 142.985739 
L 367.776708 134.032696 
L 363.389484 134.721391 
L 359.00226 134.721391 
L 354.615037 134.721391 
L 350.227813 134.721391 
L 345.84059 134.032696 
L 341.453366 134.721391 
L 337.066143 135.410087 
L 332.678919 135.410087 
L 328.291695 134.721391 
L 323.904472 135.410087 
L 319.517248 134.721391 
L 315.130025 135.410087 
L 310.742801 135.410087 
L 306.355577 135.410087 
L 301.968354 135.410087 
L 297.58113 135.410087 
L 293.193907 134.721391 
L 288.806683 134.721391 
L 284.419459 134.721391 
L 280.032236 134.721391 
L 275.645012 135.410087 
L 271.257789 134.721391 
L 266.870565 135.410087 
L 262.483342 135.410087 
L 258.096118 135.410087 
L 253.708894 135.410087 
L 249.321671 135.410087 
L 244.934447 134.721391 
L 240.547224 134.721391 
L 236.16 135.410087 
L 231.772776 135.410087 
L 227.385553 135.410087 
L 222.998329 136.098783 
L 218.611106 136.098783 
L 214.223882 135.410087 
L 209.836658 135.410087 
L 205.449435 135.410087 
L 201.062211 135.410087 
L 196.674988 135.410087 
L 192.287764 135.410087 
L 187.900541 135.410087 
L 183.513317 135.410087 
L 179.126093 135.410087 
L 174.73887 135.410087 
L 170.351646 135.410087 
L 165.964423 134.721391 
L 161.577199 135.410087 
L 157.189975 135.410087 
L 152.802752 135.410087 
L 148.415528 135.410087 
L 144.028305 134.721391 
L 139.641081 134.721391 
L 135.253857 135.410087 
L 130.866634 134.721391 
L 126.47941 135.410087 
L 122.092187 134.721391 
L 117.704963 134.721391 
L 113.31774 129.900522 
L 108.930516 126.457043 
L 104.543292 120.258783 
L 100.156069 107.173565 
L 95.768845 87.201391 
L 91.381622 80.314435 
L 86.994398 100.975304 
L 82.607174 100.975304 
L 78.219951 100.975304 
L 73.832727 100.975304 
z
" clip-path="url(#p5fa4a58841)" style="fill: #7f7f7f"/>
   </g>
   <g id="PolyCollection_9">
    <path d="M 73.832727 100.975304 
L 73.832727 100.975304 
L 78.219951 100.975304 
L 82.607174 100.975304 
L 86.994398 100.975304 
L 91.381622 80.314435 
L 95.768845 87.201391 
L 100.156069 107.173565 
L 104.543292 120.258783 
L 108.930516 126.457043 
L 113.31774 129.900522 
L 117.704963 134.721391 
L 122.092187 134.721391 
L 126.47941 135.410087 
L 130.866634 134.721391 
L 135.253857 135.410087 
L 139.641081 134.721391 
L 144.028305 134.721391 
L 148.415528 135.410087 
L 152.802752 135.410087 
L 157.189975 135.410087 
L 161.577199 135.410087 
L 165.964423 134.721391 
L 170.351646 135.410087 
L 174.73887 135.410087 
L 179.126093 135.410087 
L 183.513317 135.410087 
L 187.900541 135.410087 
L 192.287764 135.410087 
L 196.674988 135.410087 
L 201.062211 135.410087 
L 205.449435 135.410087 
L 209.836658 135.410087 
L 214.223882 135.410087 
L 218.611106 136.098783 
L 222.998329 136.098783 
L 227.385553 135.410087 
L 231.772776 135.410087 
L 236.16 135.410087 
L 240.547224 134.721391 
L 244.934447 134.721391 
L 249.321671 135.410087 
L 253.708894 135.410087 
L 258.096118 135.410087 
L 262.483342 135.410087 
L 266.870565 135.410087 
L 271.257789 134.721391 
L 275.645012 135.410087 
L 280.032236 134.721391 
L 284.419459 134.721391 
L 288.806683 134.721391 
L 293.193907 134.721391 
L 297.58113 135.410087 
L 301.968354 135.410087 
L 306.355577 135.410087 
L 310.742801 135.410087 
L 315.130025 135.410087 
L 319.517248 134.721391 
L 323.904472 135.410087 
L 328.291695 134.721391 
L 332.678919 135.410087 
L 337.066143 135.410087 
L 341.453366 134.721391 
L 345.84059 134.032696 
L 350.227813 134.721391 
L 354.615037 134.721391 
L 359.00226 134.721391 
L 363.389484 134.721391 
L 367.776708 134.032696 
L 372.163931 142.985739 
L 376.551155 142.297043 
L 380.938378 140.230957 
L 385.325602 138.16487 
L 389.712826 138.16487 
L 394.100049 139.542261 
L 398.487273 138.853565 
L 398.487273 118.192696 
L 398.487273 118.192696 
L 394.100049 118.881391 
L 389.712826 117.504 
L 385.325602 117.504 
L 380.938378 119.570087 
L 376.551155 121.636174 
L 372.163931 122.32487 
L 367.776708 113.371826 
L 363.389484 114.060522 
L 359.00226 114.060522 
L 354.615037 114.060522 
L 350.227813 114.060522 
L 345.84059 113.371826 
L 341.453366 114.060522 
L 337.066143 114.749217 
L 332.678919 114.749217 
L 328.291695 114.060522 
L 323.904472 114.749217 
L 319.517248 114.060522 
L 315.130025 114.749217 
L 310.742801 114.749217 
L 306.355577 114.749217 
L 301.968354 114.749217 
L 297.58113 114.749217 
L 293.193907 114.060522 
L 288.806683 114.060522 
L 284.419459 114.060522 
L 280.032236 114.060522 
L 275.645012 114.749217 
L 271.257789 114.060522 
L 266.870565 114.749217 
L 262.483342 114.749217 
L 258.096118 114.749217 
L 253.708894 114.749217 
L 249.321671 114.749217 
L 244.934447 114.060522 
L 240.547224 114.060522 
L 236.16 114.749217 
L 231.772776 114.749217 
L 227.385553 114.749217 
L 222.998329 115.437913 
L 218.611106 115.437913 
L 214.223882 114.749217 
L 209.836658 114.749217 
L 205.449435 114.749217 
L 201.062211 114.749217 
L 196.674988 114.749217 
L 192.287764 114.749217 
L 187.900541 114.749217 
L 183.513317 114.749217 
L 179.126093 114.749217 
L 174.73887 114.749217 
L 170.351646 114.749217 
L 165.964423 114.060522 
L 161.577199 114.749217 
L 157.189975 114.749217 
L 152.802752 114.749217 
L 148.415528 114.749217 
L 144.028305 114.060522 
L 139.641081 114.060522 
L 135.253857 114.749217 
L 130.866634 114.060522 
L 126.47941 114.749217 
L 122.092187 114.060522 
L 117.704963 114.060522 
L 113.31774 109.928348 
L 108.930516 106.48487 
L 104.543292 101.664 
L 100.156069 88.578783 
L 95.768845 86.512696 
L 91.381622 80.314435 
L 86.994398 100.975304 
L 82.607174 100.975304 
L 78.219951 100.975304 
L 73.832727 100.975304 
z
" clip-path="url(#p5fa4a58841)" style="fill: #bcbd22"/>
   </g>
   <g id="PolyCollection_10">
    <path d="M 73.832727 100.975304 
L 73.832727 100.975304 
L 78.219951 100.975304 
L 82.607174 100.975304 
L 86.994398 100.975304 
L 91.381622 80.314435 
L 95.768845 86.512696 
L 100.156069 88.578783 
L 104.543292 101.664 
L 108.930516 106.48487 
L 113.31774 109.928348 
L 117.704963 114.060522 
L 122.092187 114.060522 
L 126.47941 114.749217 
L 130.866634 114.060522 
L 135.253857 114.749217 
L 139.641081 114.060522 
L 144.028305 114.060522 
L 148.415528 114.749217 
L 152.802752 114.749217 
L 157.189975 114.749217 
L 161.577199 114.749217 
L 165.964423 114.060522 
L 170.351646 114.749217 
L 174.73887 114.749217 
L 179.126093 114.749217 
L 183.513317 114.749217 
L 187.900541 114.749217 
L 192.287764 114.749217 
L 196.674988 114.749217 
L 201.062211 114.749217 
L 205.449435 114.749217 
L 209.836658 114.749217 
L 214.223882 114.749217 
L 218.611106 115.437913 
L 222.998329 115.437913 
L 227.385553 114.749217 
L 231.772776 114.749217 
L 236.16 114.749217 
L 240.547224 114.060522 
L 244.934447 114.060522 
L 249.321671 114.749217 
L 253.708894 114.749217 
L 258.096118 114.749217 
L 262.483342 114.749217 
L 266.870565 114.749217 
L 271.257789 114.060522 
L 275.645012 114.749217 
L 280.032236 114.060522 
L 284.419459 114.060522 
L 288.806683 114.060522 
L 293.193907 114.060522 
L 297.58113 114.749217 
L 301.968354 114.749217 
L 306.355577 114.749217 
L 310.742801 114.749217 
L 315.130025 114.749217 
L 319.517248 114.060522 
L 323.904472 114.749217 
L 328.291695 114.060522 
L 332.678919 114.749217 
L 337.066143 114.749217 
L 341.453366 114.060522 
L 345.84059 113.371826 
L 350.227813 114.060522 
L 354.615037 114.060522 
L 359.00226 114.060522 
L 363.389484 114.060522 
L 367.776708 113.371826 
L 372.163931 122.32487 
L 376.551155 121.636174 
L 380.938378 119.570087 
L 385.325602 117.504 
L 389.712826 117.504 
L 394.100049 118.881391 
L 398.487273 118.192696 
L 398.487273 97.531826 
L 398.487273 97.531826 
L 394.100049 98.220522 
L 389.712826 96.84313 
L 385.325602 96.84313 
L 380.938378 98.909217 
L 376.551155 100.975304 
L 372.163931 104.418783 
L 367.776708 92.710957 
L 363.389484 93.399652 
L 359.00226 93.399652 
L 354.615037 93.399652 
L 350.227813 93.399652 
L 345.84059 92.710957 
L 341.453366 93.399652 
L 337.066143 94.088348 
L 332.678919 94.088348 
L 328.291695 93.399652 
L 323.904472 94.088348 
L 319.517248 93.399652 
L 315.130025 94.088348 
L 310.742801 94.088348 
L 306.355577 94.088348 
L 301.968354 94.088348 
L 297.58113 94.088348 
L 293.193907 93.399652 
L 288.806683 93.399652 
L 284.419459 93.399652 
L 280.032236 93.399652 
L 275.645012 94.088348 
L 271.257789 93.399652 
L 266.870565 94.088348 
L 262.483342 94.088348 
L 258.096118 94.088348 
L 253.708894 94.088348 
L 249.321671 94.088348 
L 244.934447 93.399652 
L 240.547224 93.399652 
L 236.16 94.088348 
L 231.772776 94.088348 
L 227.385553 94.088348 
L 222.998329 94.777043 
L 218.611106 94.777043 
L 214.223882 94.088348 
L 209.836658 94.088348 
L 205.449435 94.088348 
L 201.062211 94.088348 
L 196.674988 94.088348 
L 192.287764 94.088348 
L 187.900541 94.088348 
L 183.513317 94.088348 
L 179.126093 94.088348 
L 174.73887 94.088348 
L 170.351646 94.088348 
L 165.964423 93.399652 
L 161.577199 94.088348 
L 157.189975 94.088348 
L 152.802752 94.088348 
L 148.415528 94.088348 
L 144.028305 93.399652 
L 139.641081 93.399652 
L 135.253857 94.088348 
L 130.866634 93.399652 
L 126.47941 94.088348 
L 122.092187 93.399652 
L 117.704963 93.399652 
L 113.31774 89.267478 
L 108.930516 85.824 
L 104.543292 80.314435 
L 100.156069 84.446609 
L 95.768845 86.512696 
L 91.381622 80.314435 
L 86.994398 100.975304 
L 82.607174 100.975304 
L 78.219951 100.975304 
L 73.832727 100.975304 
z
" clip-path="url(#p5fa4a58841)" style="fill: #17becf"/>
   </g>
   <g id="PolyCollection_11">
    <path d="M 73.832727 100.975304 
L 73.832727 100.975304 
L 78.219951 100.975304 
L 82.607174 100.975304 
L 86.994398 100.975304 
L 91.381622 80.314435 
L 95.768845 86.512696 
L 100.156069 84.446609 
L 104.543292 80.314435 
L 108.930516 85.824 
L 113.31774 89.267478 
L 117.704963 93.399652 
L 122.092187 93.399652 
L 126.47941 94.088348 
L 130.866634 93.399652 
L 135.253857 94.088348 
L 139.641081 93.399652 
L 144.028305 93.399652 
L 148.415528 94.088348 
L 152.802752 94.088348 
L 157.189975 94.088348 
L 161.577199 94.088348 
L 165.964423 93.399652 
L 170.351646 94.088348 
L 174.73887 94.088348 
L 179.126093 94.088348 
L 183.513317 94.088348 
L 187.900541 94.088348 
L 192.287764 94.088348 
L 196.674988 94.088348 
L 201.062211 94.088348 
L 205.449435 94.088348 
L 209.836658 94.088348 
L 214.223882 94.088348 
L 218.611106 94.777043 
L 222.998329 94.777043 
L 227.385553 94.088348 
L 231.772776 94.088348 
L 236.16 94.088348 
L 240.547224 93.399652 
L 244.934447 93.399652 
L 249.321671 94.088348 
L 253.708894 94.088348 
L 258.096118 94.088348 
L 262.483342 94.088348 
L 266.870565 94.088348 
L 271.257789 93.399652 
L 275.645012 94.088348 
L 280.032236 93.399652 
L 284.419459 93.399652 
L 288.806683 93.399652 
L 293.193907 93.399652 
L 297.58113 94.088348 
L 301.968354 94.088348 
L 306.355577 94.088348 
L 310.742801 94.088348 
L 315.130025 94.088348 
L 319.517248 93.399652 
L 323.904472 94.088348 
L 328.291695 93.399652 
L 332.678919 94.088348 
L 337.066143 94.088348 
L 341.453366 93.399652 
L 345.84059 92.710957 
L 350.227813 93.399652 
L 354.615037 93.399652 
L 359.00226 93.399652 
L 363.389484 93.399652 
L 367.776708 92.710957 
L 372.163931 104.418783 
L 376.551155 100.975304 
L 380.938378 98.909217 
L 385.325602 96.84313 
L 389.712826 96.84313 
L 394.100049 98.220522 
L 398.487273 97.531826 
L 398.487273 76.870957 
L 398.487273 76.870957 
L 394.100049 77.559652 
L 389.712826 76.182261 
L 385.325602 76.182261 
L 380.938378 78.248348 
L 376.551155 80.314435 
L 372.163931 83.757913 
L 367.776708 72.050087 
L 363.389484 72.738783 
L 359.00226 72.738783 
L 354.615037 72.738783 
L 350.227813 72.738783 
L 345.84059 72.050087 
L 341.453366 72.738783 
L 337.066143 73.427478 
L 332.678919 73.427478 
L 328.291695 72.738783 
L 323.904472 73.427478 
L 319.517248 72.738783 
L 315.130025 73.427478 
L 310.742801 73.427478 
L 306.355577 73.427478 
L 301.968354 73.427478 
L 297.58113 73.427478 
L 293.193907 72.738783 
L 288.806683 72.738783 
L 284.419459 72.738783 
L 280.032236 72.738783 
L 275.645012 73.427478 
L 271.257789 72.738783 
L 266.870565 73.427478 
L 262.483342 73.427478 
L 258.096118 73.427478 
L 253.708894 73.427478 
L 249.321671 73.427478 
L 244.934447 72.738783 
L 240.547224 72.738783 
L 236.16 73.427478 
L 231.772776 73.427478 
L 227.385553 73.427478 
L 222.998329 74.116174 
L 218.611106 74.116174 
L 214.223882 73.427478 
L 209.836658 73.427478 
L 205.449435 73.427478 
L 201.062211 73.427478 
L 196.674988 73.427478 
L 192.287764 73.427478 
L 187.900541 73.427478 
L 183.513317 73.427478 
L 179.126093 73.427478 
L 174.73887 73.427478 
L 170.351646 73.427478 
L 165.964423 72.738783 
L 161.577199 73.427478 
L 157.189975 73.427478 
L 152.802752 73.427478 
L 148.415528 73.427478 
L 144.028305 72.738783 
L 139.641081 72.738783 
L 135.253857 73.427478 
L 130.866634 72.738783 
L 126.47941 73.427478 
L 122.092187 72.738783 
L 117.704963 72.738783 
L 113.31774 69.984 
L 108.930516 85.135304 
L 104.543292 80.314435 
L 100.156069 84.446609 
L 95.768845 86.512696 
L 91.381622 80.314435 
L 86.994398 100.975304 
L 82.607174 100.975304 
L 78.219951 100.975304 
L 73.832727 100.975304 
z
" clip-path="url(#p5fa4a58841)" style="fill: #1f77b4"/>
   </g>
   <g id="PolyCollection_12">
    <path d="M 73.832727 100.975304 
L 73.832727 100.975304 
L 78.219951 100.975304 
L 82.607174 100.975304 
L 86.994398 100.975304 
L 91.381622 80.314435 
L 95.768845 86.512696 
L 100.156069 84.446609 
L 104.543292 80.314435 
L 108.930516 85.135304 
L 113.31774 69.984 
L 117.704963 72.738783 
L 122.092187 72.738783 
L 126.47941 73.427478 
L 130.866634 72.738783 
L 135.253857 73.427478 
L 139.641081 72.738783 
L 144.028305 72.738783 
L 148.415528 73.427478 
L 152.802752 73.427478 
L 157.189975 73.427478 
L 161.577199 73.427478 
L 165.964423 72.738783 
L 170.351646 73.427478 
L 174.73887 73.427478 
L 179.126093 73.427478 
L 183.513317 73.427478 
L 187.900541 73.427478 
L 192.287764 73.427478 
L 196.674988 73.427478 
L 201.062211 73.427478 
L 205.449435 73.427478 
L 209.836658 73.427478 
L 214.223882 73.427478 
L 218.611106 74.116174 
L 222.998329 74.116174 
L 227.385553 73.427478 
L 231.772776 73.427478 
L 236.16 73.427478 
L 240.547224 72.738783 
L 244.934447 72.738783 
L 249.321671 73.427478 
L 253.708894 73.427478 
L 258.096118 73.427478 
L 262.483342 73.427478 
L 266.870565 73.427478 
L 271.257789 72.738783 
L 275.645012 73.427478 
L 280.032236 72.738783 
L 284.419459 72.738783 
L 288.806683 72.738783 
L 293.193907 72.738783 
L 297.58113 73.427478 
L 301.968354 73.427478 
L 306.355577 73.427478 
L 310.742801 73.427478 
L 315.130025 73.427478 
L 319.517248 72.738783 
L 323.904472 73.427478 
L 328.291695 72.738783 
L 332.678919 73.427478 
L 337.066143 73.427478 
L 341.453366 72.738783 
L 345.84059 72.050087 
L 350.227813 72.738783 
L 354.615037 72.738783 
L 359.00226 72.738783 
L 363.389484 72.738783 
L 367.776708 72.050087 
L 372.163931 83.757913 
L 376.551155 80.314435 
L 380.938378 78.248348 
L 385.325602 76.182261 
L 389.712826 76.182261 
L 394.100049 77.559652 
L 398.487273 76.870957 
L 398.487273 55.521391 
L 398.487273 55.521391 
L 394.100049 55.521391 
L 389.712826 55.521391 
L 385.325602 55.521391 
L 380.938378 54.832696 
L 376.551155 54.144 
L 372.163931 69.984 
L 367.776708 72.050087 
L 363.389484 72.738783 
L 359.00226 72.738783 
L 354.615037 72.738783 
L 350.227813 72.738783 
L 345.84059 72.050087 
L 341.453366 72.738783 
L 337.066143 73.427478 
L 332.678919 73.427478 
L 328.291695 72.738783 
L 323.904472 73.427478 
L 319.517248 72.738783 
L 315.130025 73.427478 
L 310.742801 73.427478 
L 306.355577 73.427478 
L 301.968354 73.427478 
L 297.58113 73.427478 
L 293.193907 72.738783 
L 288.806683 72.738783 
L 284.419459 72.738783 
L 280.032236 72.738783 
L 275.645012 73.427478 
L 271.257789 72.738783 
L 266.870565 73.427478 
L 262.483342 73.427478 
L 258.096118 73.427478 
L 253.708894 73.427478 
L 249.321671 73.427478 
L 244.934447 72.738783 
L 240.547224 72.738783 
L 236.16 73.427478 
L 231.772776 73.427478 
L 227.385553 73.427478 
L 222.998329 74.116174 
L 218.611106 74.116174 
L 214.223882 73.427478 
L 209.836658 73.427478 
L 205.449435 73.427478 
L 201.062211 73.427478 
L 196.674988 73.427478 
L 192.287764 73.427478 
L 187.900541 73.427478 
L 183.513317 73.427478 
L 179.126093 73.427478 
L 174.73887 73.427478 
L 170.351646 73.427478 
L 165.964423 72.738783 
L 161.577199 73.427478 
L 157.189975 73.427478 
L 152.802752 73.427478 
L 148.415528 73.427478 
L 144.028305 72.738783 
L 139.641081 72.738783 
L 135.253857 73.427478 
L 130.866634 72.738783 
L 126.47941 73.427478 
L 122.092187 72.738783 
L 117.704963 72.738783 
L 113.31774 69.984 
L 108.930516 85.135304 
L 104.543292 80.314435 
L 100.156069 84.446609 
L 95.768845 86.512696 
L 91.381622 80.314435 
L 86.994398 100.975304 
L 82.607174 100.975304 
L 78.219951 100.975304 
L 73.832727 100.975304 
z
" clip-path="url(#p5fa4a58841)" style="fill: #ff7f0e"/>
   </g>
   <g id="matplotlib.axis_1">
    <g id="xtick_1">
     <g id="line2d_1">
      <defs>
       <path id="m2d91ebc1d7" d="M 0 0 
L 0 3.5 
" style="stroke: #000000; stroke-width: 0.8"/>
      </defs>
      <g>
       <use xlink:href="#m2d91ebc1d7" x="73.832727" y="307.584" style="stroke: #000000; stroke-width: 0.8"/>
      </g>
     </g>
     <g id="text_1">
      <!-- 0 -->
      <g transform="translate(70.651477 322.182437)scale(0.1 -0.1)">
       <defs>
        <path id="DejaVuSans-30" d="M 2034 4250 
Q 1547 4250 1301 3770 
Q 1056 3291 1056 2328 
Q 1056 1369 1301 889 
Q 1547 409 2034 409 
Q 2525 409 2770 889 
Q 3016 1369 3016 2328 
Q 3016 3291 2770 3770 
Q 2525 4250 2034 4250 
z
M 2034 4750 
Q 2819 4750 3233 4129 
Q 3647 3509 3647 2328 
Q 3647 1150 3233 529 
Q 2819 -91 2034 -91 
Q 1250 -91 836 529 
Q 422 1150 422 2328 
Q 422 3509 836 4129 
Q 1250 4750 2034 4750 
z
" transform="scale(0.015625)"/>
       </defs>
       <use xlink:href="#DejaVuSans-30"/>
      </g>
     </g>
    </g>
    <g id="xtick_2">
     <g id="line2d_2">
      <g>
       <use xlink:href="#m2d91ebc1d7" x="117.704963" y="307.584" style="stroke: #000000; stroke-width: 0.8"/>
      </g>
     </g>
     <g id="text_2">
      <!-- 10 -->
      <g transform="translate(111.342463 322.182437)scale(0.1 -0.1)">
       <defs>
        <path id="DejaVuSans-31" d="M 794 531 
L 1825 531 
L 1825 4091 
L 703 3866 
L 703 4441 
L 1819 4666 
L 2450 4666 
L 2450 531 
L 3481 531 
L 3481 0 
L 794 0 
L 794 531 
z
" transform="scale(0.015625)"/>
       </defs>
       <use xlink:href="#DejaVuSans-31"/>
       <use xlink:href="#DejaVuSans-30" x="63.623047"/>
      </g>
     </g>
    </g>
    <g id="xtick_3">
     <g id="line2d_3">
      <g>
       <use xlink:href="#m2d91ebc1d7" x="161.577199" y="307.584" style="stroke: #000000; stroke-width: 0.8"/>
      </g>
     </g>
     <g id="text_3">
      <!-- 20 -->
      <g transform="translate(155.214699 322.182437)scale(0.1 -0.1)">
       <defs>
        <path id="DejaVuSans-32" d="M 1228 531 
L 3431 531 
L 3431 0 
L 469 0 
L 469 531 
Q 828 903 1448 1529 
Q 2069 2156 2228 2338 
Q 2531 2678 2651 2914 
Q 2772 3150 2772 3378 
Q 2772 3750 2511 3984 
Q 2250 4219 1831 4219 
Q 1534 4219 1204 4116 
Q 875 4013 500 3803 
L 500 4441 
Q 881 4594 1212 4672 
Q 1544 4750 1819 4750 
Q 2544 4750 2975 4387 
Q 3406 4025 3406 3419 
Q 3406 3131 3298 2873 
Q 3191 2616 2906 2266 
Q 2828 2175 2409 1742 
Q 1991 1309 1228 531 
z
" transform="scale(0.015625)"/>
       </defs>
       <use xlink:href="#DejaVuSans-32"/>
       <use xlink:href="#DejaVuSans-30" x="63.623047"/>
      </g>
     </g>
    </g>
    <g id="xtick_4">
     <g id="line2d_4">
      <g>
       <use xlink:href="#m2d91ebc1d7" x="205.449435" y="307.584" style="stroke: #000000; stroke-width: 0.8"/>
      </g>
     </g>
     <g id="text_4">
      <!-- 30 -->
      <g transform="translate(199.086935 322.182437)scale(0.1 -0.1)">
       <defs>
        <path id="DejaVuSans-33" d="M 2597 2516 
Q 3050 2419 3304 2112 
Q 3559 1806 3559 1356 
Q 3559 666 3084 287 
Q 2609 -91 1734 -91 
Q 1441 -91 1130 -33 
Q 819 25 488 141 
L 488 750 
Q 750 597 1062 519 
Q 1375 441 1716 441 
Q 2309 441 2620 675 
Q 2931 909 2931 1356 
Q 2931 1769 2642 2001 
Q 2353 2234 1838 2234 
L 1294 2234 
L 1294 2753 
L 1863 2753 
Q 2328 2753 2575 2939 
Q 2822 3125 2822 3475 
Q 2822 3834 2567 4026 
Q 2313 4219 1838 4219 
Q 1578 4219 1281 4162 
Q 984 4106 628 3988 
L 628 4550 
Q 988 4650 1302 4700 
Q 1616 4750 1894 4750 
Q 2613 4750 3031 4423 
Q 3450 4097 3450 3541 
Q 3450 3153 3228 2886 
Q 3006 2619 2597 2516 
z
" transform="scale(0.015625)"/>
       </defs>
       <use xlink:href="#DejaVuSans-33"/>
       <use xlink:href="#DejaVuSans-30" x="63.623047"/>
      </g>
     </g>
    </g>
    <g id="xtick_5">
     <g id="line2d_5">
      <g>
       <use xlink:href="#m2d91ebc1d7" x="249.321671" y="307.584" style="stroke: #000000; stroke-width: 0.8"/>
      </g>
     </g>
     <g id="text_5">
      <!-- 40 -->
      <g transform="translate(242.959171 322.182437)scale(0.1 -0.1)">
       <defs>
        <path id="DejaVuSans-34" d="M 2419 4116 
L 825 1625 
L 2419 1625 
L 2419 4116 
z
M 2253 4666 
L 3047 4666 
L 3047 1625 
L 3713 1625 
L 3713 1100 
L 3047 1100 
L 3047 0 
L 2419 0 
L 2419 1100 
L 313 1100 
L 313 1709 
L 2253 4666 
z
" transform="scale(0.015625)"/>
       </defs>
       <use xlink:href="#DejaVuSans-34"/>
       <use xlink:href="#DejaVuSans-30" x="63.623047"/>
      </g>
     </g>
    </g>
    <g id="xtick_6">
     <g id="line2d_6">
      <g>
       <use xlink:href="#m2d91ebc1d7" x="293.193907" y="307.584" style="stroke: #000000; stroke-width: 0.8"/>
      </g>
     </g>
     <g id="text_6">
      <!-- 50 -->
      <g transform="translate(286.831407 322.182437)scale(0.1 -0.1)">
       <defs>
        <path id="DejaVuSans-35" d="M 691 4666 
L 3169 4666 
L 3169 4134 
L 1269 4134 
L 1269 2991 
Q 1406 3038 1543 3061 
Q 1681 3084 1819 3084 
Q 2600 3084 3056 2656 
Q 3513 2228 3513 1497 
Q 3513 744 3044 326 
Q 2575 -91 1722 -91 
Q 1428 -91 1123 -41 
Q 819 9 494 109 
L 494 744 
Q 775 591 1075 516 
Q 1375 441 1709 441 
Q 2250 441 2565 725 
Q 2881 1009 2881 1497 
Q 2881 1984 2565 2268 
Q 2250 2553 1709 2553 
Q 1456 2553 1204 2497 
Q 953 2441 691 2322 
L 691 4666 
z
" transform="scale(0.015625)"/>
       </defs>
       <use xlink:href="#DejaVuSans-35"/>
       <use xlink:href="#DejaVuSans-30" x="63.623047"/>
      </g>
     </g>
    </g>
    <g id="xtick_7">
     <g id="line2d_7">
      <g>
       <use xlink:href="#m2d91ebc1d7" x="337.066143" y="307.584" style="stroke: #000000; stroke-width: 0.8"/>
      </g>
     </g>
     <g id="text_7">
      <!-- 60 -->
      <g transform="translate(330.703643 322.182437)scale(0.1 -0.1)">
       <defs>
        <path id="DejaVuSans-36" d="M 2113 2584 
Q 1688 2584 1439 2293 
Q 1191 2003 1191 1497 
Q 1191 994 1439 701 
Q 1688 409 2113 409 
Q 2538 409 2786 701 
Q 3034 994 3034 1497 
Q 3034 2003 2786 2293 
Q 2538 2584 2113 2584 
z
M 3366 4563 
L 3366 3988 
Q 3128 4100 2886 4159 
Q 2644 4219 2406 4219 
Q 1781 4219 1451 3797 
Q 1122 3375 1075 2522 
Q 1259 2794 1537 2939 
Q 1816 3084 2150 3084 
Q 2853 3084 3261 2657 
Q 3669 2231 3669 1497 
Q 3669 778 3244 343 
Q 2819 -91 2113 -91 
Q 1303 -91 875 529 
Q 447 1150 447 2328 
Q 447 3434 972 4092 
Q 1497 4750 2381 4750 
Q 2619 4750 2861 4703 
Q 3103 4656 3366 4563 
z
" transform="scale(0.015625)"/>
       </defs>
       <use xlink:href="#DejaVuSans-36"/>
       <use xlink:href="#DejaVuSans-30" x="63.623047"/>
      </g>
     </g>
    </g>
    <g id="xtick_8">
     <g id="line2d_8">
      <g>
       <use xlink:href="#m2d91ebc1d7" x="380.938378" y="307.584" style="stroke: #000000; stroke-width: 0.8"/>
      </g>
     </g>
     <g id="text_8">
      <!-- 70 -->
      <g transform="translate(374.575878 322.182437)scale(0.1 -0.1)">
       <defs>
        <path id="DejaVuSans-37" d="M 525 4666 
L 3525 4666 
L 3525 4397 
L 1831 0 
L 1172 0 
L 2766 4134 
L 525 4134 
L 525 4666 
z
" transform="scale(0.015625)"/>
       </defs>
       <use xlink:href="#DejaVuSans-37"/>
       <use xlink:href="#DejaVuSans-30" x="63.623047"/>
      </g>
     </g>
    </g>
    <g id="text_9">
     <!-- Generations -->
     <g transform="translate(205.662344 335.860562)scale(0.1 -0.1)">
      <defs>
       <path id="DejaVuSans-47" d="M 3809 666 
L 3809 1919 
L 2778 1919 
L 2778 2438 
L 4434 2438 
L 4434 434 
Q 4069 175 3628 42 
Q 3188 -91 2688 -91 
Q 1594 -91 976 548 
Q 359 1188 359 2328 
Q 359 3472 976 4111 
Q 1594 4750 2688 4750 
Q 3144 4750 3555 4637 
Q 3966 4525 4313 4306 
L 4313 3634 
Q 3963 3931 3569 4081 
Q 3175 4231 2741 4231 
Q 1884 4231 1454 3753 
Q 1025 3275 1025 2328 
Q 1025 1384 1454 906 
Q 1884 428 2741 428 
Q 3075 428 3337 486 
Q 3600 544 3809 666 
z
" transform="scale(0.015625)"/>
       <path id="DejaVuSans-65" d="M 3597 1894 
L 3597 1613 
L 953 1613 
Q 991 1019 1311 708 
Q 1631 397 2203 397 
Q 2534 397 2845 478 
Q 3156 559 3463 722 
L 3463 178 
Q 3153 47 2828 -22 
Q 2503 -91 2169 -91 
Q 1331 -91 842 396 
Q 353 884 353 1716 
Q 353 2575 817 3079 
Q 1281 3584 2069 3584 
Q 2775 3584 3186 3129 
Q 3597 2675 3597 1894 
z
M 3022 2063 
Q 3016 2534 2758 2815 
Q 2500 3097 2075 3097 
Q 1594 3097 1305 2825 
Q 1016 2553 972 2059 
L 3022 2063 
z
" transform="scale(0.015625)"/>
       <path id="DejaVuSans-6e" d="M 3513 2113 
L 3513 0 
L 2938 0 
L 2938 2094 
Q 2938 2591 2744 2837 
Q 2550 3084 2163 3084 
Q 1697 3084 1428 2787 
Q 1159 2491 1159 1978 
L 1159 0 
L 581 0 
L 581 3500 
L 1159 3500 
L 1159 2956 
Q 1366 3272 1645 3428 
Q 1925 3584 2291 3584 
Q 2894 3584 3203 3211 
Q 3513 2838 3513 2113 
z
" transform="scale(0.015625)"/>
       <path id="DejaVuSans-72" d="M 2631 2963 
Q 2534 3019 2420 3045 
Q 2306 3072 2169 3072 
Q 1681 3072 1420 2755 
Q 1159 2438 1159 1844 
L 1159 0 
L 581 0 
L 581 3500 
L 1159 3500 
L 1159 2956 
Q 1341 3275 1631 3429 
Q 1922 3584 2338 3584 
Q 2397 3584 2469 3576 
Q 2541 3569 2628 3553 
L 2631 2963 
z
" transform="scale(0.015625)"/>
       <path id="DejaVuSans-61" d="M 2194 1759 
Q 1497 1759 1228 1600 
Q 959 1441 959 1056 
Q 959 750 1161 570 
Q 1363 391 1709 391 
Q 2188 391 2477 730 
Q 2766 1069 2766 1631 
L 2766 1759 
L 2194 1759 
z
M 3341 1997 
L 3341 0 
L 2766 0 
L 2766 531 
Q 2569 213 2275 61 
Q 1981 -91 1556 -91 
Q 1019 -91 701 211 
Q 384 513 384 1019 
Q 384 1609 779 1909 
Q 1175 2209 1959 2209 
L 2766 2209 
L 2766 2266 
Q 2766 2663 2505 2880 
Q 2244 3097 1772 3097 
Q 1472 3097 1187 3025 
Q 903 2953 641 2809 
L 641 3341 
Q 956 3463 1253 3523 
Q 1550 3584 1831 3584 
Q 2591 3584 2966 3190 
Q 3341 2797 3341 1997 
z
" transform="scale(0.015625)"/>
       <path id="DejaVuSans-74" d="M 1172 4494 
L 1172 3500 
L 2356 3500 
L 2356 3053 
L 1172 3053 
L 1172 1153 
Q 1172 725 1289 603 
Q 1406 481 1766 481 
L 2356 481 
L 2356 0 
L 1766 0 
Q 1100 0 847 248 
Q 594 497 594 1153 
L 594 3053 
L 172 3053 
L 172 3500 
L 594 3500 
L 594 4494 
L 1172 4494 
z
" transform="scale(0.015625)"/>
       <path id="DejaVuSans-69" d="M 603 3500 
L 1178 3500 
L 1178 0 
L 603 0 
L 603 3500 
z
M 603 4863 
L 1178 4863 
L 1178 4134 
L 603 4134 
L 603 4863 
z
" transform="scale(0.015625)"/>
       <path id="DejaVuSans-6f" d="M 1959 3097 
Q 1497 3097 1228 2736 
Q 959 2375 959 1747 
Q 959 1119 1226 758 
Q 1494 397 1959 397 
Q 2419 397 2687 759 
Q 2956 1122 2956 1747 
Q 2956 2369 2687 2733 
Q 2419 3097 1959 3097 
z
M 1959 3584 
Q 2709 3584 3137 3096 
Q 3566 2609 3566 1747 
Q 3566 888 3137 398 
Q 2709 -91 1959 -91 
Q 1206 -91 779 398 
Q 353 888 353 1747 
Q 353 2609 779 3096 
Q 1206 3584 1959 3584 
z
" transform="scale(0.015625)"/>
       <path id="DejaVuSans-73" d="M 2834 3397 
L 2834 2853 
Q 2591 2978 2328 3040 
Q 2066 3103 1784 3103 
Q 1356 3103 1142 2972 
Q 928 2841 928 2578 
Q 928 2378 1081 2264 
Q 1234 2150 1697 2047 
L 1894 2003 
Q 2506 1872 2764 1633 
Q 3022 1394 3022 966 
Q 3022 478 2636 193 
Q 2250 -91 1575 -91 
Q 1294 -91 989 -36 
Q 684 19 347 128 
L 347 722 
Q 666 556 975 473 
Q 1284 391 1588 391 
Q 1994 391 2212 530 
Q 2431 669 2431 922 
Q 2431 1156 2273 1281 
Q 2116 1406 1581 1522 
L 1381 1569 
Q 847 1681 609 1914 
Q 372 2147 372 2553 
Q 372 3047 722 3315 
Q 1072 3584 1716 3584 
Q 2034 3584 2315 3537 
Q 2597 3491 2834 3397 
z
" transform="scale(0.015625)"/>
      </defs>
      <use xlink:href="#DejaVuSans-47"/>
      <use xlink:href="#DejaVuSans-65" x="77.490234"/>
      <use xlink:href="#DejaVuSans-6e" x="139.013672"/>
      <use xlink:href="#DejaVuSans-65" x="202.392578"/>
      <use xlink:href="#DejaVuSans-72" x="263.916016"/>
      <use xlink:href="#DejaVuSans-61" x="305.029297"/>
      <use xlink:href="#DejaVuSans-74" x="366.308594"/>
      <use xlink:href="#DejaVuSans-69" x="405.517578"/>
      <use xlink:href="#DejaVuSans-6f" x="433.300781"/>
      <use xlink:href="#DejaVuSans-6e" x="494.482422"/>
      <use xlink:href="#DejaVuSans-73" x="557.861328"/>
     </g>
    </g>
   </g>
   <g id="matplotlib.axis_2">
    <g id="ytick_1">
     <g id="line2d_9">
      <defs>
       <path id="md7f2b7afe2" d="M 0 0 
L -3.5 0 
" style="stroke: #000000; stroke-width: 0.8"/>
      </defs>
      <g>
       <use xlink:href="#md7f2b7afe2" x="57.6" y="307.584" style="stroke: #000000; stroke-width: 0.8"/>
      </g>
     </g>
     <g id="text_10">
      <!-- 0 -->
      <g transform="translate(44.2375 311.383219)scale(0.1 -0.1)">
       <use xlink:href="#DejaVuSans-30"/>
      </g>
     </g>
    </g>
    <g id="ytick_2">
     <g id="line2d_10">
      <g>
       <use xlink:href="#md7f2b7afe2" x="57.6" y="273.149217" style="stroke: #000000; stroke-width: 0.8"/>
      </g>
     </g>
     <g id="text_11">
      <!-- 50 -->
      <g transform="translate(37.875 276.948436)scale(0.1 -0.1)">
       <use xlink:href="#DejaVuSans-35"/>
       <use xlink:href="#DejaVuSans-30" x="63.623047"/>
      </g>
     </g>
    </g>
    <g id="ytick_3">
     <g id="line2d_11">
      <g>
       <use xlink:href="#md7f2b7afe2" x="57.6" y="238.714435" style="stroke: #000000; stroke-width: 0.8"/>
      </g>
     </g>
     <g id="text_12">
      <!-- 100 -->
      <g transform="translate(31.5125 242.513654)scale(0.1 -0.1)">
       <use xlink:href="#DejaVuSans-31"/>
       <use xlink:href="#DejaVuSans-30" x="63.623047"/>
       <use xlink:href="#DejaVuSans-30" x="127.246094"/>
      </g>
     </g>
    </g>
    <g id="ytick_4">
     <g id="line2d_12">
      <g>
       <use xlink:href="#md7f2b7afe2" x="57.6" y="204.279652" style="stroke: #000000; stroke-width: 0.8"/>
      </g>
     </g>
     <g id="text_13">
      <!-- 150 -->
      <g transform="translate(31.5125 208.078871)scale(0.1 -0.1)">
       <use xlink:href="#DejaVuSans-31"/>
       <use xlink:href="#DejaVuSans-35" x="63.623047"/>
       <use xlink:href="#DejaVuSans-30" x="127.246094"/>
      </g>
     </g>
    </g>
    <g id="ytick_5">
     <g id="line2d_13">
      <g>
       <use xlink:href="#md7f2b7afe2" x="57.6" y="169.84487" style="stroke: #000000; stroke-width: 0.8"/>
      </g>
     </g>
     <g id="text_14">
      <!-- 200 -->
      <g transform="translate(31.5125 173.644088)scale(0.1 -0.1)">
       <use xlink:href="#DejaVuSans-32"/>
       <use xlink:href="#DejaVuSans-30" x="63.623047"/>
       <use xlink:href="#DejaVuSans-30" x="127.246094"/>
      </g>
     </g>
    </g>
    <g id="ytick_6">
     <g id="line2d_14">
      <g>
       <use xlink:href="#md7f2b7afe2" x="57.6" y="135.410087" style="stroke: #000000; stroke-width: 0.8"/>
      </g>
     </g>
     <g id="text_15">
      <!-- 250 -->
      <g transform="translate(31.5125 139.209306)scale(0.1 -0.1)">
       <use xlink:href="#DejaVuSans-32"/>
       <use xlink:href="#DejaVuSans-35" x="63.623047"/>
       <use xlink:href="#DejaVuSans-30" x="127.246094"/>
      </g>
     </g>
    </g>
    <g id="ytick_7">
     <g id="line2d_15">
      <g>
       <use xlink:href="#md7f2b7afe2" x="57.6" y="100.975304" style="stroke: #000000; stroke-width: 0.8"/>
      </g>
     </g>
     <g id="text_16">
      <!-- 300 -->
      <g transform="translate(31.5125 104.774523)scale(0.1 -0.1)">
       <use xlink:href="#DejaVuSans-33"/>
       <use xlink:href="#DejaVuSans-30" x="63.623047"/>
       <use xlink:href="#DejaVuSans-30" x="127.246094"/>
      </g>
     </g>
    </g>
    <g id="ytick_8">
     <g id="line2d_16">
      <g>
       <use xlink:href="#md7f2b7afe2" x="57.6" y="66.540522" style="stroke: #000000; stroke-width: 0.8"/>
      </g>
     </g>
     <g id="text_17">
      <!-- 350 -->
      <g transform="translate(31.5125 70.33974)scale(0.1 -0.1)">
       <use xlink:href="#DejaVuSans-33"/>
       <use xlink:href="#DejaVuSans-35" x="63.623047"/>
       <use xlink:href="#DejaVuSans-30" x="127.246094"/>
      </g>
     </g>
    </g>
    <g id="text_18">
     <!-- Size per Species -->
     <g transform="translate(25.432812 215.520969)rotate(-90)scale(0.1 -0.1)">
      <defs>
       <path id="DejaVuSans-53" d="M 3425 4513 
L 3425 3897 
Q 3066 4069 2747 4153 
Q 2428 4238 2131 4238 
Q 1616 4238 1336 4038 
Q 1056 3838 1056 3469 
Q 1056 3159 1242 3001 
Q 1428 2844 1947 2747 
L 2328 2669 
Q 3034 2534 3370 2195 
Q 3706 1856 3706 1288 
Q 3706 609 3251 259 
Q 2797 -91 1919 -91 
Q 1588 -91 1214 -16 
Q 841 59 441 206 
L 441 856 
Q 825 641 1194 531 
Q 1563 422 1919 422 
Q 2459 422 2753 634 
Q 3047 847 3047 1241 
Q 3047 1584 2836 1778 
Q 2625 1972 2144 2069 
L 1759 2144 
Q 1053 2284 737 2584 
Q 422 2884 422 3419 
Q 422 4038 858 4394 
Q 1294 4750 2059 4750 
Q 2388 4750 2728 4690 
Q 3069 4631 3425 4513 
z
" transform="scale(0.015625)"/>
       <path id="DejaVuSans-7a" d="M 353 3500 
L 3084 3500 
L 3084 2975 
L 922 459 
L 3084 459 
L 3084 0 
L 275 0 
L 275 525 
L 2438 3041 
L 353 3041 
L 353 3500 
z
" transform="scale(0.015625)"/>
       <path id="DejaVuSans-20" transform="scale(0.015625)"/>
       <path id="DejaVuSans-70" d="M 1159 525 
L 1159 -1331 
L 581 -1331 
L 581 3500 
L 1159 3500 
L 1159 2969 
Q 1341 3281 1617 3432 
Q 1894 3584 2278 3584 
Q 2916 3584 3314 3078 
Q 3713 2572 3713 1747 
Q 3713 922 3314 415 
Q 2916 -91 2278 -91 
Q 1894 -91 1617 61 
Q 1341 213 1159 525 
z
M 3116 1747 
Q 3116 2381 2855 2742 
Q 2594 3103 2138 3103 
Q 1681 3103 1420 2742 
Q 1159 2381 1159 1747 
Q 1159 1113 1420 752 
Q 1681 391 2138 391 
Q 2594 391 2855 752 
Q 3116 1113 3116 1747 
z
" transform="scale(0.015625)"/>
       <path id="DejaVuSans-63" d="M 3122 3366 
L 3122 2828 
Q 2878 2963 2633 3030 
Q 2388 3097 2138 3097 
Q 1578 3097 1268 2742 
Q 959 2388 959 1747 
Q 959 1106 1268 751 
Q 1578 397 2138 397 
Q 2388 397 2633 464 
Q 2878 531 3122 666 
L 3122 134 
Q 2881 22 2623 -34 
Q 2366 -91 2075 -91 
Q 1284 -91 818 406 
Q 353 903 353 1747 
Q 353 2603 823 3093 
Q 1294 3584 2113 3584 
Q 2378 3584 2631 3529 
Q 2884 3475 3122 3366 
z
" transform="scale(0.015625)"/>
      </defs>
      <use xlink:href="#DejaVuSans-53"/>
      <use xlink:href="#DejaVuSans-69" x="63.476562"/>
      <use xlink:href="#DejaVuSans-7a" x="91.259766"/>
      <use xlink:href="#DejaVuSans-65" x="143.75"/>
      <use xlink:href="#DejaVuSans-20" x="205.273438"/>
      <use xlink:href="#DejaVuSans-70" x="237.060547"/>
      <use xlink:href="#DejaVuSans-65" x="300.537109"/>
      <use xlink:href="#DejaVuSans-72" x="362.060547"/>
      <use xlink:href="#DejaVuSans-20" x="403.173828"/>
      <use xlink:href="#DejaVuSans-53" x="434.960938"/>
      <use xlink:href="#DejaVuSans-70" x="498.4375"/>
      <use xlink:href="#DejaVuSans-65" x="561.914062"/>
      <use xlink:href="#DejaVuSans-63" x="623.4375"/>
      <use xlink:href="#DejaVuSans-69" x="678.417969"/>
      <use xlink:href="#DejaVuSans-65" x="706.201172"/>
      <use xlink:href="#DejaVuSans-73" x="767.724609"/>
     </g>
    </g>
   </g>
   <g id="patch_3">
    <path d="M 57.6 307.584 
L 57.6 41.472 
" style="fill: none; stroke: #000000; stroke-width: 0.8; stroke-linejoin: miter; stroke-linecap: square"/>
   </g>
   <g id="patch_4">
    <path d="M 414.72 307.584 
L 414.72 41.472 
" style="fill: none; stroke: #000000; stroke-width: 0.8; stroke-linejoin: miter; stroke-linecap: square"/>
   </g>
   <g id="patch_5">
    <path d="M 57.6 307.584 
L 414.72 307.584 
" style="fill: none; stroke: #000000; stroke-width: 0.8; stroke-linejoin: miter; stroke-linecap: square"/>
   </g>
   <g id="patch_6">
    <path d="M 57.6 41.472 
L 414.72 41.472 
" style="fill: none; stroke: #000000; stroke-width: 0.8; stroke-linejoin: miter; stroke-linecap: square"/>
   </g>
   <g id="text_19">
    <!-- Speciation -->
    <g transform="translate(204.714375 35.472)scale(0.12 -0.12)">
     <use xlink:href="#DejaVuSans-53"/>
     <use xlink:href="#DejaVuSans-70" x="63.476562"/>
     <use xlink:href="#DejaVuSans-65" x="126.953125"/>
     <use xlink:href="#DejaVuSans-63" x="188.476562"/>
     <use xlink:href="#DejaVuSans-69" x="243.457031"/>
     <use xlink:href="#DejaVuSans-61" x="271.240234"/>
     <use xlink:href="#DejaVuSans-74" x="332.519531"/>
     <use xlink:href="#DejaVuSans-69" x="371.728516"/>
     <use xlink:href="#DejaVuSans-6f" x="399.511719"/>
     <use xlink:href="#DejaVuSans-6e" x="460.693359"/>
    </g>
   </g>
  </g>
 </g>
 <defs>
  <clipPath id="p5fa4a58841">
   <rect x="57.6" y="41.472" width="357.12" height="266.112"/>
  </clipPath>
 </defs>
</svg>
