<?xml version="1.0" encoding="utf-8" standalone="no"?>
<!DOCTYPE svg PUBLIC "-//W3C//DTD SVG 1.1//EN"
  "http://www.w3.org/Graphics/SVG/1.1/DTD/svg11.dtd">
<svg xmlns:xlink="http://www.w3.org/1999/xlink" width="460.8pt" height="345.6pt" viewBox="0 0 460.8 345.6" xmlns="http://www.w3.org/2000/svg" version="1.1">
 <metadata>
  <rdf:RDF xmlns:dc="http://purl.org/dc/elements/1.1/" xmlns:cc="http://creativecommons.org/ns#" xmlns:rdf="http://www.w3.org/1999/02/22-rdf-syntax-ns#">
   <cc:Work>
    <dc:type rdf:resource="http://purl.org/dc/dcmitype/StillImage"/>
    <dc:date>2022-06-24T04:39:02.346087</dc:date>
    <dc:format>image/svg+xml</dc:format>
    <dc:creator>
     <cc:Agent>
      <dc:title>Matplotlib v3.5.2, https://matplotlib.org/</dc:title>
     </cc:Agent>
    </dc:creator>
   </cc:Work>
  </rdf:RDF>
 </metadata>
 <defs>
  <style type="text/css">*{stroke-linejoin: round; stroke-linecap: butt}</style>
 </defs>
 <g id="figure_1">
  <g id="patch_1">
   <path d="M 0 345.6 
L 460.8 345.6 
L 460.8 0 
L 0 0 
z
" style="fill: #ffffff"/>
  </g>
  <g id="axes_1">
   <g id="patch_2">
    <path d="M 57.6 307.584 
L 414.72 307.584 
L 414.72 41.472 
L 57.6 41.472 
z
" style="fill: #ffffff"/>
   </g>
   <g id="PolyCollection_1">
    <path d="M 73.832727 83.300814 
L 73.832727 307.584 
L 78.219951 307.584 
L 82.607174 307.584 
L 86.994398 307.584 
L 91.381622 307.584 
L 95.768845 307.584 
L 100.156069 307.584 
L 104.543292 307.584 
L 108.930516 307.584 
L 113.31774 307.584 
L 117.704963 307.584 
L 122.092187 307.584 
L 126.47941 307.584 
L 130.866634 307.584 
L 135.253857 307.584 
L 139.641081 307.584 
L 144.028305 307.584 
L 148.415528 307.584 
L 152.802752 307.584 
L 157.189975 307.584 
L 161.577199 307.584 
L 165.964423 307.584 
L 170.351646 307.584 
L 174.73887 307.584 
L 179.126093 307.584 
L 183.513317 307.584 
L 187.900541 307.584 
L 192.287764 307.584 
L 196.674988 307.584 
L 201.062211 307.584 
L 205.449435 307.584 
L 209.836658 307.584 
L 214.223882 307.584 
L 218.611106 307.584 
L 222.998329 307.584 
L 227.385553 307.584 
L 231.772776 307.584 
L 236.16 307.584 
L 240.547224 307.584 
L 244.934447 307.584 
L 249.321671 307.584 
L 253.708894 307.584 
L 258.096118 307.584 
L 262.483342 307.584 
L 266.870565 307.584 
L 271.257789 307.584 
L 275.645012 307.584 
L 280.032236 307.584 
L 284.419459 307.584 
L 288.806683 307.584 
L 293.193907 307.584 
L 297.58113 307.584 
L 301.968354 307.584 
L 306.355577 307.584 
L 310.742801 307.584 
L 315.130025 307.584 
L 319.517248 307.584 
L 323.904472 307.584 
L 328.291695 307.584 
L 332.678919 307.584 
L 337.066143 307.584 
L 341.453366 307.584 
L 345.84059 307.584 
L 350.227813 307.584 
L 354.615037 307.584 
L 359.00226 307.584 
L 363.389484 307.584 
L 367.776708 307.584 
L 372.163931 307.584 
L 376.551155 307.584 
L 380.938378 307.584 
L 385.325602 307.584 
L 389.712826 307.584 
L 394.100049 307.584 
L 398.487273 307.584 
L 398.487273 282.91285 
L 398.487273 282.91285 
L 394.100049 282.91285 
L 389.712826 283.66046 
L 385.325602 283.66046 
L 380.938378 282.165239 
L 376.551155 282.91285 
L 372.163931 283.66046 
L 367.776708 282.165239 
L 363.389484 282.91285 
L 359.00226 282.91285 
L 354.615037 282.165239 
L 350.227813 282.91285 
L 345.84059 284.408071 
L 341.453366 282.91285 
L 337.066143 282.165239 
L 332.678919 282.165239 
L 328.291695 281.417628 
L 323.904472 283.66046 
L 319.517248 283.66046 
L 315.130025 284.408071 
L 310.742801 283.66046 
L 306.355577 283.66046 
L 301.968354 282.91285 
L 297.58113 282.91285 
L 293.193907 282.165239 
L 288.806683 282.165239 
L 284.419459 282.91285 
L 280.032236 283.66046 
L 275.645012 283.66046 
L 271.257789 282.91285 
L 266.870565 283.66046 
L 262.483342 282.165239 
L 258.096118 283.66046 
L 253.708894 282.91285 
L 249.321671 283.66046 
L 244.934447 284.408071 
L 240.547224 283.66046 
L 236.16 284.408071 
L 231.772776 283.66046 
L 227.385553 282.91285 
L 222.998329 282.91285 
L 218.611106 282.165239 
L 214.223882 282.165239 
L 209.836658 280.670018 
L 205.449435 279.174796 
L 201.062211 282.165239 
L 196.674988 279.174796 
L 192.287764 281.417628 
L 187.900541 279.174796 
L 183.513317 280.670018 
L 179.126093 279.174796 
L 174.73887 280.670018 
L 170.351646 281.417628 
L 165.964423 280.670018 
L 161.577199 281.417628 
L 157.189975 279.174796 
L 152.802752 282.91285 
L 148.415528 281.417628 
L 144.028305 280.670018 
L 139.641081 281.417628 
L 135.253857 282.165239 
L 130.866634 280.670018 
L 126.47941 281.417628 
L 122.092187 279.922407 
L 117.704963 274.689133 
L 113.31774 267.960637 
L 108.930516 267.213027 
L 104.543292 258.241699 
L 100.156069 258.241699 
L 95.768845 248.522761 
L 91.381622 247.02754 
L 86.994398 229.832496 
L 82.607174 211.889841 
L 78.219951 158.809487 
L 73.832727 83.300814 
z
" clip-path="url(#pb419c45d54)" style="fill: #1f77b4"/>
   </g>
   <g id="PolyCollection_2">
    <path d="M 73.832727 83.300814 
L 73.832727 83.300814 
L 78.219951 158.809487 
L 82.607174 211.889841 
L 86.994398 229.832496 
L 91.381622 247.02754 
L 95.768845 248.522761 
L 100.156069 258.241699 
L 104.543292 258.241699 
L 108.930516 267.213027 
L 113.31774 267.960637 
L 117.704963 274.689133 
L 122.092187 279.922407 
L 126.47941 281.417628 
L 130.866634 280.670018 
L 135.253857 282.165239 
L 139.641081 281.417628 
L 144.028305 280.670018 
L 148.415528 281.417628 
L 152.802752 282.91285 
L 157.189975 279.174796 
L 161.577199 281.417628 
L 165.964423 280.670018 
L 170.351646 281.417628 
L 174.73887 280.670018 
L 179.126093 279.174796 
L 183.513317 280.670018 
L 187.900541 279.174796 
L 192.287764 281.417628 
L 196.674988 279.174796 
L 201.062211 282.165239 
L 205.449435 279.174796 
L 209.836658 280.670018 
L 214.223882 282.165239 
L 218.611106 282.165239 
L 222.998329 282.91285 
L 227.385553 282.91285 
L 231.772776 283.66046 
L 236.16 284.408071 
L 240.547224 283.66046 
L 244.934447 284.408071 
L 249.321671 283.66046 
L 253.708894 282.91285 
L 258.096118 283.66046 
L 262.483342 282.165239 
L 266.870565 283.66046 
L 271.257789 282.91285 
L 275.645012 283.66046 
L 280.032236 283.66046 
L 284.419459 282.91285 
L 288.806683 282.165239 
L 293.193907 282.165239 
L 297.58113 282.91285 
L 301.968354 282.91285 
L 306.355577 283.66046 
L 310.742801 283.66046 
L 315.130025 284.408071 
L 319.517248 283.66046 
L 323.904472 283.66046 
L 328.291695 281.417628 
L 332.678919 282.165239 
L 337.066143 282.165239 
L 341.453366 282.91285 
L 345.84059 284.408071 
L 350.227813 282.91285 
L 354.615037 282.165239 
L 359.00226 282.91285 
L 363.389484 282.91285 
L 367.776708 282.165239 
L 372.163931 283.66046 
L 376.551155 282.91285 
L 380.938378 282.165239 
L 385.325602 283.66046 
L 389.712826 283.66046 
L 394.100049 282.91285 
L 398.487273 282.91285 
L 398.487273 261.232142 
L 398.487273 261.232142 
L 394.100049 258.98931 
L 389.712826 259.73692 
L 385.325602 258.98931 
L 380.938378 259.73692 
L 376.551155 260.484531 
L 372.163931 258.98931 
L 367.776708 258.98931 
L 363.389484 260.484531 
L 359.00226 258.98931 
L 354.615037 259.73692 
L 350.227813 259.73692 
L 345.84059 260.484531 
L 341.453366 260.484531 
L 337.066143 259.73692 
L 332.678919 259.73692 
L 328.291695 258.98931 
L 323.904472 261.232142 
L 319.517248 261.232142 
L 315.130025 260.484531 
L 310.742801 259.73692 
L 306.355577 260.484531 
L 301.968354 260.484531 
L 297.58113 259.73692 
L 293.193907 258.98931 
L 288.806683 259.73692 
L 284.419459 260.484531 
L 280.032236 260.484531 
L 275.645012 259.73692 
L 271.257789 260.484531 
L 266.870565 260.484531 
L 262.483342 259.73692 
L 258.096118 261.232142 
L 253.708894 260.484531 
L 249.321671 261.232142 
L 244.934447 260.484531 
L 240.547224 259.73692 
L 236.16 261.232142 
L 231.772776 260.484531 
L 227.385553 259.73692 
L 222.998329 260.484531 
L 218.611106 259.73692 
L 214.223882 259.73692 
L 209.836658 256.746478 
L 205.449435 254.503646 
L 201.062211 257.494088 
L 196.674988 254.503646 
L 192.287764 255.251257 
L 187.900541 255.251257 
L 183.513317 256.746478 
L 179.126093 255.251257 
L 174.73887 255.998867 
L 170.351646 257.494088 
L 165.964423 256.746478 
L 161.577199 255.998867 
L 157.189975 253.756035 
L 152.802752 256.746478 
L 148.415528 254.503646 
L 144.028305 255.251257 
L 139.641081 257.494088 
L 135.253857 258.98931 
L 130.866634 255.998867 
L 126.47941 253.756035 
L 122.092187 253.008425 
L 117.704963 247.77515 
L 113.31774 238.803823 
L 108.930516 235.06577 
L 104.543292 225.346832 
L 100.156069 223.104 
L 95.768845 201.423292 
L 91.381622 199.928071 
L 86.994398 169.276035 
L 82.607174 158.061876 
L 78.219951 108.719575 
L 73.832727 83.300814 
z
" clip-path="url(#pb419c45d54)" style="fill: #ff7f0e"/>
   </g>
   <g id="PolyCollection_3">
    <path d="M 73.832727 83.300814 
L 73.832727 83.300814 
L 78.219951 108.719575 
L 82.607174 158.061876 
L 86.994398 169.276035 
L 91.381622 199.928071 
L 95.768845 201.423292 
L 100.156069 223.104 
L 104.543292 225.346832 
L 108.930516 235.06577 
L 113.31774 238.803823 
L 117.704963 247.77515 
L 122.092187 253.008425 
L 126.47941 253.756035 
L 130.866634 255.998867 
L 135.253857 258.98931 
L 139.641081 257.494088 
L 144.028305 255.251257 
L 148.415528 254.503646 
L 152.802752 256.746478 
L 157.189975 253.756035 
L 161.577199 255.998867 
L 165.964423 256.746478 
L 170.351646 257.494088 
L 174.73887 255.998867 
L 179.126093 255.251257 
L 183.513317 256.746478 
L 187.900541 255.251257 
L 192.287764 255.251257 
L 196.674988 254.503646 
L 201.062211 257.494088 
L 205.449435 254.503646 
L 209.836658 256.746478 
L 214.223882 259.73692 
L 218.611106 259.73692 
L 222.998329 260.484531 
L 227.385553 259.73692 
L 231.772776 260.484531 
L 236.16 261.232142 
L 240.547224 259.73692 
L 244.934447 260.484531 
L 249.321671 261.232142 
L 253.708894 260.484531 
L 258.096118 261.232142 
L 262.483342 259.73692 
L 266.870565 260.484531 
L 271.257789 260.484531 
L 275.645012 259.73692 
L 280.032236 260.484531 
L 284.419459 260.484531 
L 288.806683 259.73692 
L 293.193907 258.98931 
L 297.58113 259.73692 
L 301.968354 260.484531 
L 306.355577 260.484531 
L 310.742801 259.73692 
L 315.130025 260.484531 
L 319.517248 261.232142 
L 323.904472 261.232142 
L 328.291695 258.98931 
L 332.678919 259.73692 
L 337.066143 259.73692 
L 341.453366 260.484531 
L 345.84059 260.484531 
L 350.227813 259.73692 
L 354.615037 259.73692 
L 359.00226 258.98931 
L 363.389484 260.484531 
L 367.776708 258.98931 
L 372.163931 258.98931 
L 376.551155 260.484531 
L 380.938378 259.73692 
L 385.325602 258.98931 
L 389.712826 259.73692 
L 394.100049 258.98931 
L 398.487273 261.232142 
L 398.487273 238.803823 
L 398.487273 238.803823 
L 394.100049 236.560991 
L 389.712826 236.560991 
L 385.325602 235.813381 
L 380.938378 236.560991 
L 376.551155 236.560991 
L 372.163931 236.560991 
L 367.776708 235.813381 
L 363.389484 236.560991 
L 359.00226 236.560991 
L 354.615037 236.560991 
L 350.227813 235.813381 
L 345.84059 237.308602 
L 341.453366 237.308602 
L 337.066143 237.308602 
L 332.678919 237.308602 
L 328.291695 236.560991 
L 323.904472 238.056212 
L 319.517248 238.056212 
L 315.130025 236.560991 
L 310.742801 237.308602 
L 306.355577 236.560991 
L 301.968354 237.308602 
L 297.58113 237.308602 
L 293.193907 235.813381 
L 288.806683 236.560991 
L 284.419459 237.308602 
L 280.032236 236.560991 
L 275.645012 237.308602 
L 271.257789 237.308602 
L 266.870565 237.308602 
L 262.483342 236.560991 
L 258.096118 237.308602 
L 253.708894 236.560991 
L 249.321671 238.056212 
L 244.934447 237.308602 
L 240.547224 236.560991 
L 236.16 237.308602 
L 231.772776 238.056212 
L 227.385553 235.813381 
L 222.998329 237.308602 
L 218.611106 237.308602 
L 214.223882 235.813381 
L 209.836658 232.075327 
L 205.449435 229.832496 
L 201.062211 228.337274 
L 196.674988 229.084885 
L 192.287764 229.832496 
L 187.900541 229.832496 
L 183.513317 229.832496 
L 179.126093 229.832496 
L 174.73887 228.337274 
L 170.351646 232.075327 
L 165.964423 230.580106 
L 161.577199 229.832496 
L 157.189975 229.832496 
L 152.802752 229.832496 
L 148.415528 229.084885 
L 144.028305 229.084885 
L 139.641081 229.084885 
L 135.253857 230.580106 
L 130.866634 230.580106 
L 126.47941 229.832496 
L 122.092187 229.084885 
L 117.704963 223.104 
L 113.31774 206.656566 
L 108.930516 202.918513 
L 104.543292 189.461522 
L 100.156069 181.985416 
L 95.768845 170.023646 
L 91.381622 154.323823 
L 86.994398 130.400283 
L 82.607174 96.010195 
L 78.219951 83.300814 
L 73.832727 83.300814 
z
" clip-path="url(#pb419c45d54)" style="fill: #2ca02c"/>
   </g>
   <g id="PolyCollection_4">
    <path d="M 73.832727 83.300814 
L 73.832727 83.300814 
L 78.219951 83.300814 
L 82.607174 96.010195 
L 86.994398 130.400283 
L 91.381622 154.323823 
L 95.768845 170.023646 
L 100.156069 181.985416 
L 104.543292 189.461522 
L 108.930516 202.918513 
L 113.31774 206.656566 
L 117.704963 223.104 
L 122.092187 229.084885 
L 126.47941 229.832496 
L 130.866634 230.580106 
L 135.253857 230.580106 
L 139.641081 229.084885 
L 144.028305 229.084885 
L 148.415528 229.084885 
L 152.802752 229.832496 
L 157.189975 229.832496 
L 161.577199 229.832496 
L 165.964423 230.580106 
L 170.351646 232.075327 
L 174.73887 228.337274 
L 179.126093 229.832496 
L 183.513317 229.832496 
L 187.900541 229.832496 
L 192.287764 229.832496 
L 196.674988 229.084885 
L 201.062211 228.337274 
L 205.449435 229.832496 
L 209.836658 232.075327 
L 214.223882 235.813381 
L 218.611106 237.308602 
L 222.998329 237.308602 
L 227.385553 235.813381 
L 231.772776 238.056212 
L 236.16 237.308602 
L 240.547224 236.560991 
L 244.934447 237.308602 
L 249.321671 238.056212 
L 253.708894 236.560991 
L 258.096118 237.308602 
L 262.483342 236.560991 
L 266.870565 237.308602 
L 271.257789 237.308602 
L 275.645012 237.308602 
L 280.032236 236.560991 
L 284.419459 237.308602 
L 288.806683 236.560991 
L 293.193907 235.813381 
L 297.58113 237.308602 
L 301.968354 237.308602 
L 306.355577 236.560991 
L 310.742801 237.308602 
L 315.130025 236.560991 
L 319.517248 238.056212 
L 323.904472 238.056212 
L 328.291695 236.560991 
L 332.678919 237.308602 
L 337.066143 237.308602 
L 341.453366 237.308602 
L 345.84059 237.308602 
L 350.227813 235.813381 
L 354.615037 236.560991 
L 359.00226 236.560991 
L 363.389484 236.560991 
L 367.776708 235.813381 
L 372.163931 236.560991 
L 376.551155 236.560991 
L 380.938378 236.560991 
L 385.325602 235.813381 
L 389.712826 236.560991 
L 394.100049 236.560991 
L 398.487273 238.803823 
L 398.487273 216.375504 
L 398.487273 216.375504 
L 394.100049 214.132673 
L 389.712826 214.132673 
L 385.325602 213.385062 
L 380.938378 214.132673 
L 376.551155 213.385062 
L 372.163931 213.385062 
L 367.776708 213.385062 
L 363.389484 213.385062 
L 359.00226 214.132673 
L 354.615037 214.132673 
L 350.227813 213.385062 
L 345.84059 214.880283 
L 341.453366 214.880283 
L 337.066143 214.880283 
L 332.678919 214.132673 
L 328.291695 214.132673 
L 323.904472 214.880283 
L 319.517248 214.880283 
L 315.130025 213.385062 
L 310.742801 214.880283 
L 306.355577 214.132673 
L 301.968354 214.132673 
L 297.58113 214.880283 
L 293.193907 213.385062 
L 288.806683 214.132673 
L 284.419459 214.880283 
L 280.032236 214.132673 
L 275.645012 214.880283 
L 271.257789 214.132673 
L 266.870565 214.880283 
L 262.483342 214.132673 
L 258.096118 214.880283 
L 253.708894 214.132673 
L 249.321671 214.880283 
L 244.934447 214.132673 
L 240.547224 214.132673 
L 236.16 214.132673 
L 231.772776 214.880283 
L 227.385553 213.385062 
L 222.998329 214.132673 
L 218.611106 214.132673 
L 214.223882 213.385062 
L 209.836658 209.647009 
L 205.449435 205.908956 
L 201.062211 205.908956 
L 196.674988 204.413735 
L 192.287764 205.908956 
L 187.900541 206.656566 
L 183.513317 206.656566 
L 179.126093 207.404177 
L 174.73887 205.908956 
L 170.351646 207.404177 
L 165.964423 207.404177 
L 161.577199 205.908956 
L 157.189975 206.656566 
L 152.802752 205.908956 
L 148.415528 205.161345 
L 144.028305 205.908956 
L 139.641081 206.656566 
L 135.253857 206.656566 
L 130.866634 207.404177 
L 126.47941 205.908956 
L 122.092187 205.161345 
L 117.704963 196.937628 
L 113.31774 182.733027 
L 108.930516 174.50931 
L 104.543292 158.061876 
L 100.156069 152.080991 
L 95.768845 137.128779 
L 91.381622 124.419398 
L 86.994398 97.505416 
L 82.607174 86.291257 
L 78.219951 83.300814 
L 73.832727 83.300814 
z
" clip-path="url(#pb419c45d54)" style="fill: #d62728"/>
   </g>
   <g id="PolyCollection_5">
    <path d="M 73.832727 83.300814 
L 73.832727 83.300814 
L 78.219951 83.300814 
L 82.607174 86.291257 
L 86.994398 97.505416 
L 91.381622 124.419398 
L 95.768845 137.128779 
L 100.156069 152.080991 
L 104.543292 158.061876 
L 108.930516 174.50931 
L 113.31774 182.733027 
L 117.704963 196.937628 
L 122.092187 205.161345 
L 126.47941 205.908956 
L 130.866634 207.404177 
L 135.253857 206.656566 
L 139.641081 206.656566 
L 144.028305 205.908956 
L 148.415528 205.161345 
L 152.802752 205.908956 
L 157.189975 206.656566 
L 161.577199 205.908956 
L 165.964423 207.404177 
L 170.351646 207.404177 
L 174.73887 205.908956 
L 179.126093 207.404177 
L 183.513317 206.656566 
L 187.900541 206.656566 
L 192.287764 205.908956 
L 196.674988 204.413735 
L 201.062211 205.908956 
L 205.449435 205.908956 
L 209.836658 209.647009 
L 214.223882 213.385062 
L 218.611106 214.132673 
L 222.998329 214.132673 
L 227.385553 213.385062 
L 231.772776 214.880283 
L 236.16 214.132673 
L 240.547224 214.132673 
L 244.934447 214.132673 
L 249.321671 214.880283 
L 253.708894 214.132673 
L 258.096118 214.880283 
L 262.483342 214.132673 
L 266.870565 214.880283 
L 271.257789 214.132673 
L 275.645012 214.880283 
L 280.032236 214.132673 
L 284.419459 214.880283 
L 288.806683 214.132673 
L 293.193907 213.385062 
L 297.58113 214.880283 
L 301.968354 214.132673 
L 306.355577 214.132673 
L 310.742801 214.880283 
L 315.130025 213.385062 
L 319.517248 214.880283 
L 323.904472 214.880283 
L 328.291695 214.132673 
L 332.678919 214.132673 
L 337.066143 214.880283 
L 341.453366 214.880283 
L 345.84059 214.880283 
L 350.227813 213.385062 
L 354.615037 214.132673 
L 359.00226 214.132673 
L 363.389484 213.385062 
L 367.776708 213.385062 
L 372.163931 213.385062 
L 376.551155 213.385062 
L 380.938378 214.132673 
L 385.325602 213.385062 
L 389.712826 214.132673 
L 394.100049 214.132673 
L 398.487273 216.375504 
L 398.487273 193.947186 
L 398.487273 193.947186 
L 394.100049 191.704354 
L 389.712826 191.704354 
L 385.325602 190.956743 
L 380.938378 191.704354 
L 376.551155 190.956743 
L 372.163931 190.956743 
L 367.776708 190.956743 
L 363.389484 190.956743 
L 359.00226 191.704354 
L 354.615037 191.704354 
L 350.227813 190.956743 
L 345.84059 191.704354 
L 341.453366 191.704354 
L 337.066143 192.451965 
L 332.678919 191.704354 
L 328.291695 191.704354 
L 323.904472 192.451965 
L 319.517248 192.451965 
L 315.130025 190.956743 
L 310.742801 192.451965 
L 306.355577 191.704354 
L 301.968354 191.704354 
L 297.58113 192.451965 
L 293.193907 190.956743 
L 288.806683 191.704354 
L 284.419459 191.704354 
L 280.032236 191.704354 
L 275.645012 192.451965 
L 271.257789 191.704354 
L 266.870565 191.704354 
L 262.483342 191.704354 
L 258.096118 192.451965 
L 253.708894 191.704354 
L 249.321671 192.451965 
L 244.934447 191.704354 
L 240.547224 191.704354 
L 236.16 191.704354 
L 231.772776 192.451965 
L 227.385553 190.956743 
L 222.998329 191.704354 
L 218.611106 191.704354 
L 214.223882 190.956743 
L 209.836658 187.21869 
L 205.449435 183.480637 
L 201.062211 183.480637 
L 196.674988 181.985416 
L 192.287764 183.480637 
L 187.900541 184.228248 
L 183.513317 183.480637 
L 179.126093 184.228248 
L 174.73887 183.480637 
L 170.351646 184.975858 
L 165.964423 184.228248 
L 161.577199 183.480637 
L 157.189975 184.228248 
L 152.802752 182.733027 
L 148.415528 182.733027 
L 144.028305 183.480637 
L 139.641081 184.228248 
L 135.253857 184.975858 
L 130.866634 184.975858 
L 126.47941 183.480637 
L 122.092187 182.733027 
L 117.704963 173.014088 
L 113.31774 155.819044 
L 108.930516 145.352496 
L 104.543292 130.400283 
L 100.156069 125.167009 
L 95.768845 110.962407 
L 91.381622 100.495858 
L 86.994398 84.048425 
L 82.607174 83.300814 
L 78.219951 83.300814 
L 73.832727 83.300814 
z
" clip-path="url(#pb419c45d54)" style="fill: #9467bd"/>
   </g>
   <g id="PolyCollection_6">
    <path d="M 73.832727 83.300814 
L 73.832727 83.300814 
L 78.219951 83.300814 
L 82.607174 83.300814 
L 86.994398 84.048425 
L 91.381622 100.495858 
L 95.768845 110.962407 
L 100.156069 125.167009 
L 104.543292 130.400283 
L 108.930516 145.352496 
L 113.31774 155.819044 
L 117.704963 173.014088 
L 122.092187 182.733027 
L 126.47941 183.480637 
L 130.866634 184.975858 
L 135.253857 184.975858 
L 139.641081 184.228248 
L 144.028305 183.480637 
L 148.415528 182.733027 
L 152.802752 182.733027 
L 157.189975 184.228248 
L 161.577199 183.480637 
L 165.964423 184.228248 
L 170.351646 184.975858 
L 174.73887 183.480637 
L 179.126093 184.228248 
L 183.513317 183.480637 
L 187.900541 184.228248 
L 192.287764 183.480637 
L 196.674988 181.985416 
L 201.062211 183.480637 
L 205.449435 183.480637 
L 209.836658 187.21869 
L 214.223882 190.956743 
L 218.611106 191.704354 
L 222.998329 191.704354 
L 227.385553 190.956743 
L 231.772776 192.451965 
L 236.16 191.704354 
L 240.547224 191.704354 
L 244.934447 191.704354 
L 249.321671 192.451965 
L 253.708894 191.704354 
L 258.096118 192.451965 
L 262.483342 191.704354 
L 266.870565 191.704354 
L 271.257789 191.704354 
L 275.645012 192.451965 
L 280.032236 191.704354 
L 284.419459 191.704354 
L 288.806683 191.704354 
L 293.193907 190.956743 
L 297.58113 192.451965 
L 301.968354 191.704354 
L 306.355577 191.704354 
L 310.742801 192.451965 
L 315.130025 190.956743 
L 319.517248 192.451965 
L 323.904472 192.451965 
L 328.291695 191.704354 
L 332.678919 191.704354 
L 337.066143 192.451965 
L 341.453366 191.704354 
L 345.84059 191.704354 
L 350.227813 190.956743 
L 354.615037 191.704354 
L 359.00226 191.704354 
L 363.389484 190.956743 
L 367.776708 190.956743 
L 372.163931 190.956743 
L 376.551155 190.956743 
L 380.938378 191.704354 
L 385.325602 190.956743 
L 389.712826 191.704354 
L 394.100049 191.704354 
L 398.487273 193.947186 
L 398.487273 171.518867 
L 398.487273 171.518867 
L 394.100049 169.276035 
L 389.712826 169.276035 
L 385.325602 168.528425 
L 380.938378 169.276035 
L 376.551155 168.528425 
L 372.163931 168.528425 
L 367.776708 168.528425 
L 363.389484 168.528425 
L 359.00226 169.276035 
L 354.615037 169.276035 
L 350.227813 168.528425 
L 345.84059 169.276035 
L 341.453366 169.276035 
L 337.066143 170.023646 
L 332.678919 169.276035 
L 328.291695 169.276035 
L 323.904472 170.023646 
L 319.517248 170.023646 
L 315.130025 168.528425 
L 310.742801 170.023646 
L 306.355577 169.276035 
L 301.968354 169.276035 
L 297.58113 170.023646 
L 293.193907 168.528425 
L 288.806683 169.276035 
L 284.419459 169.276035 
L 280.032236 169.276035 
L 275.645012 170.023646 
L 271.257789 169.276035 
L 266.870565 169.276035 
L 262.483342 169.276035 
L 258.096118 170.023646 
L 253.708894 169.276035 
L 249.321671 170.023646 
L 244.934447 169.276035 
L 240.547224 169.276035 
L 236.16 169.276035 
L 231.772776 170.023646 
L 227.385553 168.528425 
L 222.998329 169.276035 
L 218.611106 169.276035 
L 214.223882 168.528425 
L 209.836658 164.790372 
L 205.449435 161.052319 
L 201.062211 161.052319 
L 196.674988 159.557097 
L 192.287764 161.052319 
L 187.900541 161.799929 
L 183.513317 161.052319 
L 179.126093 161.799929 
L 174.73887 161.052319 
L 170.351646 162.54754 
L 165.964423 161.799929 
L 161.577199 161.052319 
L 157.189975 161.799929 
L 152.802752 160.304708 
L 148.415528 160.304708 
L 144.028305 161.052319 
L 139.641081 161.799929 
L 135.253857 161.799929 
L 130.866634 161.799929 
L 126.47941 161.052319 
L 122.092187 159.557097 
L 117.704963 150.58577 
L 113.31774 134.885947 
L 108.930516 122.924177 
L 104.543292 106.476743 
L 100.156069 102.73869 
L 95.768845 89.281699 
L 91.381622 81.057982 
L 86.994398 82.553204 
L 82.607174 83.300814 
L 78.219951 83.300814 
L 73.832727 83.300814 
z
" clip-path="url(#pb419c45d54)" style="fill: #8c564b"/>
   </g>
   <g id="PolyCollection_7">
    <path d="M 73.832727 83.300814 
L 73.832727 83.300814 
L 78.219951 83.300814 
L 82.607174 83.300814 
L 86.994398 82.553204 
L 91.381622 81.057982 
L 95.768845 89.281699 
L 100.156069 102.73869 
L 104.543292 106.476743 
L 108.930516 122.924177 
L 113.31774 134.885947 
L 117.704963 150.58577 
L 122.092187 159.557097 
L 126.47941 161.052319 
L 130.866634 161.799929 
L 135.253857 161.799929 
L 139.641081 161.799929 
L 144.028305 161.052319 
L 148.415528 160.304708 
L 152.802752 160.304708 
L 157.189975 161.799929 
L 161.577199 161.052319 
L 165.964423 161.799929 
L 170.351646 162.54754 
L 174.73887 161.052319 
L 179.126093 161.799929 
L 183.513317 161.052319 
L 187.900541 161.799929 
L 192.287764 161.052319 
L 196.674988 159.557097 
L 201.062211 161.052319 
L 205.449435 161.052319 
L 209.836658 164.790372 
L 214.223882 168.528425 
L 218.611106 169.276035 
L 222.998329 169.276035 
L 227.385553 168.528425 
L 231.772776 170.023646 
L 236.16 169.276035 
L 240.547224 169.276035 
L 244.934447 169.276035 
L 249.321671 170.023646 
L 253.708894 169.276035 
L 258.096118 170.023646 
L 262.483342 169.276035 
L 266.870565 169.276035 
L 271.257789 169.276035 
L 275.645012 170.023646 
L 280.032236 169.276035 
L 284.419459 169.276035 
L 288.806683 169.276035 
L 293.193907 168.528425 
L 297.58113 170.023646 
L 301.968354 169.276035 
L 306.355577 169.276035 
L 310.742801 170.023646 
L 315.130025 168.528425 
L 319.517248 170.023646 
L 323.904472 170.023646 
L 328.291695 169.276035 
L 332.678919 169.276035 
L 337.066143 170.023646 
L 341.453366 169.276035 
L 345.84059 169.276035 
L 350.227813 168.528425 
L 354.615037 169.276035 
L 359.00226 169.276035 
L 363.389484 168.528425 
L 367.776708 168.528425 
L 372.163931 168.528425 
L 376.551155 168.528425 
L 380.938378 169.276035 
L 385.325602 168.528425 
L 389.712826 169.276035 
L 394.100049 169.276035 
L 398.487273 171.518867 
L 398.487273 149.090549 
L 398.487273 149.090549 
L 394.100049 146.847717 
L 389.712826 146.847717 
L 385.325602 146.100106 
L 380.938378 146.847717 
L 376.551155 146.100106 
L 372.163931 146.100106 
L 367.776708 146.100106 
L 363.389484 146.100106 
L 359.00226 146.847717 
L 354.615037 146.847717 
L 350.227813 146.100106 
L 345.84059 146.847717 
L 341.453366 146.847717 
L 337.066143 147.595327 
L 332.678919 146.847717 
L 328.291695 146.847717 
L 323.904472 147.595327 
L 319.517248 147.595327 
L 315.130025 146.100106 
L 310.742801 147.595327 
L 306.355577 146.847717 
L 301.968354 146.847717 
L 297.58113 147.595327 
L 293.193907 146.100106 
L 288.806683 146.847717 
L 284.419459 146.847717 
L 280.032236 146.847717 
L 275.645012 147.595327 
L 271.257789 146.847717 
L 266.870565 146.847717 
L 262.483342 146.847717 
L 258.096118 147.595327 
L 253.708894 146.847717 
L 249.321671 147.595327 
L 244.934447 146.847717 
L 240.547224 146.847717 
L 236.16 146.847717 
L 231.772776 147.595327 
L 227.385553 146.100106 
L 222.998329 146.847717 
L 218.611106 146.847717 
L 214.223882 146.100106 
L 209.836658 142.362053 
L 205.449435 139.371611 
L 201.062211 137.876389 
L 196.674988 137.128779 
L 192.287764 138.624 
L 187.900541 139.371611 
L 183.513317 138.624 
L 179.126093 139.371611 
L 174.73887 137.876389 
L 170.351646 140.119221 
L 165.964423 139.371611 
L 161.577199 138.624 
L 157.189975 139.371611 
L 152.802752 137.876389 
L 148.415528 137.876389 
L 144.028305 138.624 
L 139.641081 139.371611 
L 135.253857 139.371611 
L 130.866634 139.371611 
L 126.47941 138.624 
L 122.092187 137.128779 
L 117.704963 128.157451 
L 113.31774 111.710018 
L 108.930516 101.99108 
L 104.543292 82.553204 
L 100.156069 80.310372 
L 95.768845 68.348602 
L 91.381622 80.310372 
L 86.994398 82.553204 
L 82.607174 83.300814 
L 78.219951 83.300814 
L 73.832727 83.300814 
z
" clip-path="url(#pb419c45d54)" style="fill: #e377c2"/>
   </g>
   <g id="PolyCollection_8">
    <path d="M 73.832727 83.300814 
L 73.832727 83.300814 
L 78.219951 83.300814 
L 82.607174 83.300814 
L 86.994398 82.553204 
L 91.381622 80.310372 
L 95.768845 68.348602 
L 100.156069 80.310372 
L 104.543292 82.553204 
L 108.930516 101.99108 
L 113.31774 111.710018 
L 117.704963 128.157451 
L 122.092187 137.128779 
L 126.47941 138.624 
L 130.866634 139.371611 
L 135.253857 139.371611 
L 139.641081 139.371611 
L 144.028305 138.624 
L 148.415528 137.876389 
L 152.802752 137.876389 
L 157.189975 139.371611 
L 161.577199 138.624 
L 165.964423 139.371611 
L 170.351646 140.119221 
L 174.73887 137.876389 
L 179.126093 139.371611 
L 183.513317 138.624 
L 187.900541 139.371611 
L 192.287764 138.624 
L 196.674988 137.128779 
L 201.062211 137.876389 
L 205.449435 139.371611 
L 209.836658 142.362053 
L 214.223882 146.100106 
L 218.611106 146.847717 
L 222.998329 146.847717 
L 227.385553 146.100106 
L 231.772776 147.595327 
L 236.16 146.847717 
L 240.547224 146.847717 
L 244.934447 146.847717 
L 249.321671 147.595327 
L 253.708894 146.847717 
L 258.096118 147.595327 
L 262.483342 146.847717 
L 266.870565 146.847717 
L 271.257789 146.847717 
L 275.645012 147.595327 
L 280.032236 146.847717 
L 284.419459 146.847717 
L 288.806683 146.847717 
L 293.193907 146.100106 
L 297.58113 147.595327 
L 301.968354 146.847717 
L 306.355577 146.847717 
L 310.742801 147.595327 
L 315.130025 146.100106 
L 319.517248 147.595327 
L 323.904472 147.595327 
L 328.291695 146.847717 
L 332.678919 146.847717 
L 337.066143 147.595327 
L 341.453366 146.847717 
L 345.84059 146.847717 
L 350.227813 146.100106 
L 354.615037 146.847717 
L 359.00226 146.847717 
L 363.389484 146.100106 
L 367.776708 146.100106 
L 372.163931 146.100106 
L 376.551155 146.100106 
L 380.938378 146.847717 
L 385.325602 146.100106 
L 389.712826 146.847717 
L 394.100049 146.847717 
L 398.487273 149.090549 
L 398.487273 126.66223 
L 398.487273 126.66223 
L 394.100049 124.419398 
L 389.712826 124.419398 
L 385.325602 123.671788 
L 380.938378 124.419398 
L 376.551155 123.671788 
L 372.163931 123.671788 
L 367.776708 123.671788 
L 363.389484 123.671788 
L 359.00226 124.419398 
L 354.615037 124.419398 
L 350.227813 123.671788 
L 345.84059 124.419398 
L 341.453366 124.419398 
L 337.066143 125.167009 
L 332.678919 124.419398 
L 328.291695 124.419398 
L 323.904472 125.167009 
L 319.517248 125.167009 
L 315.130025 123.671788 
L 310.742801 125.167009 
L 306.355577 124.419398 
L 301.968354 124.419398 
L 297.58113 125.167009 
L 293.193907 123.671788 
L 288.806683 124.419398 
L 284.419459 124.419398 
L 280.032236 124.419398 
L 275.645012 125.167009 
L 271.257789 124.419398 
L 266.870565 124.419398 
L 262.483342 124.419398 
L 258.096118 125.167009 
L 253.708894 124.419398 
L 249.321671 125.167009 
L 244.934447 124.419398 
L 240.547224 124.419398 
L 236.16 124.419398 
L 231.772776 125.167009 
L 227.385553 123.671788 
L 222.998329 124.419398 
L 218.611106 124.419398 
L 214.223882 123.671788 
L 209.836658 119.933735 
L 205.449435 116.943292 
L 201.062211 115.448071 
L 196.674988 114.70046 
L 192.287764 116.195681 
L 187.900541 116.943292 
L 183.513317 116.195681 
L 179.126093 116.943292 
L 174.73887 115.448071 
L 170.351646 117.690903 
L 165.964423 116.943292 
L 161.577199 116.195681 
L 157.189975 116.195681 
L 152.802752 115.448071 
L 148.415528 115.448071 
L 144.028305 116.195681 
L 139.641081 116.943292 
L 135.253857 116.943292 
L 130.866634 116.943292 
L 126.47941 116.195681 
L 122.092187 114.70046 
L 117.704963 105.729133 
L 113.31774 88.534088 
L 108.930516 78.81515 
L 104.543292 81.805593 
L 100.156069 80.310372 
L 95.768845 68.348602 
L 91.381622 80.310372 
L 86.994398 82.553204 
L 82.607174 83.300814 
L 78.219951 83.300814 
L 73.832727 83.300814 
z
" clip-path="url(#pb419c45d54)" style="fill: #7f7f7f"/>
   </g>
   <g id="PolyCollection_9">
    <path d="M 73.832727 83.300814 
L 73.832727 83.300814 
L 78.219951 83.300814 
L 82.607174 83.300814 
L 86.994398 82.553204 
L 91.381622 80.310372 
L 95.768845 68.348602 
L 100.156069 80.310372 
L 104.543292 81.805593 
L 108.930516 78.81515 
L 113.31774 88.534088 
L 117.704963 105.729133 
L 122.092187 114.70046 
L 126.47941 116.195681 
L 130.866634 116.943292 
L 135.253857 116.943292 
L 139.641081 116.943292 
L 144.028305 116.195681 
L 148.415528 115.448071 
L 152.802752 115.448071 
L 157.189975 116.195681 
L 161.577199 116.195681 
L 165.964423 116.943292 
L 170.351646 117.690903 
L 174.73887 115.448071 
L 179.126093 116.943292 
L 183.513317 116.195681 
L 187.900541 116.943292 
L 192.287764 116.195681 
L 196.674988 114.70046 
L 201.062211 115.448071 
L 205.449435 116.943292 
L 209.836658 119.933735 
L 214.223882 123.671788 
L 218.611106 124.419398 
L 222.998329 124.419398 
L 227.385553 123.671788 
L 231.772776 125.167009 
L 236.16 124.419398 
L 240.547224 124.419398 
L 244.934447 124.419398 
L 249.321671 125.167009 
L 253.708894 124.419398 
L 258.096118 125.167009 
L 262.483342 124.419398 
L 266.870565 124.419398 
L 271.257789 124.419398 
L 275.645012 125.167009 
L 280.032236 124.419398 
L 284.419459 124.419398 
L 288.806683 124.419398 
L 293.193907 123.671788 
L 297.58113 125.167009 
L 301.968354 124.419398 
L 306.355577 124.419398 
L 310.742801 125.167009 
L 315.130025 123.671788 
L 319.517248 125.167009 
L 323.904472 125.167009 
L 328.291695 124.419398 
L 332.678919 124.419398 
L 337.066143 125.167009 
L 341.453366 124.419398 
L 345.84059 124.419398 
L 350.227813 123.671788 
L 354.615037 124.419398 
L 359.00226 124.419398 
L 363.389484 123.671788 
L 367.776708 123.671788 
L 372.163931 123.671788 
L 376.551155 123.671788 
L 380.938378 124.419398 
L 385.325602 123.671788 
L 389.712826 124.419398 
L 394.100049 124.419398 
L 398.487273 126.66223 
L 398.487273 101.99108 
L 398.487273 101.99108 
L 394.100049 101.99108 
L 389.712826 101.99108 
L 385.325602 100.495858 
L 380.938378 101.99108 
L 376.551155 101.243469 
L 372.163931 101.243469 
L 367.776708 101.243469 
L 363.389484 101.243469 
L 359.00226 101.243469 
L 354.615037 101.99108 
L 350.227813 101.243469 
L 345.84059 101.99108 
L 341.453366 101.99108 
L 337.066143 101.99108 
L 332.678919 101.99108 
L 328.291695 101.99108 
L 323.904472 102.73869 
L 319.517248 102.73869 
L 315.130025 101.243469 
L 310.742801 102.73869 
L 306.355577 101.99108 
L 301.968354 101.99108 
L 297.58113 102.73869 
L 293.193907 101.243469 
L 288.806683 101.99108 
L 284.419459 101.99108 
L 280.032236 101.99108 
L 275.645012 102.73869 
L 271.257789 101.99108 
L 266.870565 101.99108 
L 262.483342 101.99108 
L 258.096118 102.73869 
L 253.708894 101.99108 
L 249.321671 101.99108 
L 244.934447 101.99108 
L 240.547224 101.99108 
L 236.16 101.99108 
L 231.772776 102.73869 
L 227.385553 101.243469 
L 222.998329 101.99108 
L 218.611106 101.99108 
L 214.223882 101.243469 
L 209.836658 97.505416 
L 205.449435 94.514973 
L 201.062211 93.019752 
L 196.674988 92.272142 
L 192.287764 93.019752 
L 187.900541 93.767363 
L 183.513317 94.514973 
L 179.126093 93.767363 
L 174.73887 93.019752 
L 170.351646 94.514973 
L 165.964423 93.767363 
L 161.577199 93.019752 
L 157.189975 93.767363 
L 152.802752 93.019752 
L 148.415528 93.019752 
L 144.028305 93.767363 
L 139.641081 94.514973 
L 135.253857 94.514973 
L 130.866634 94.514973 
L 126.47941 93.767363 
L 122.092187 93.019752 
L 117.704963 86.291257 
L 113.31774 70.591434 
L 108.930516 77.319929 
L 104.543292 81.805593 
L 100.156069 80.310372 
L 95.768845 68.348602 
L 91.381622 80.310372 
L 86.994398 82.553204 
L 82.607174 83.300814 
L 78.219951 83.300814 
L 73.832727 83.300814 
z
" clip-path="url(#pb419c45d54)" style="fill: #bcbd22"/>
   </g>
   <g id="PolyCollection_10">
    <path d="M 73.832727 83.300814 
L 73.832727 83.300814 
L 78.219951 83.300814 
L 82.607174 83.300814 
L 86.994398 82.553204 
L 91.381622 80.310372 
L 95.768845 68.348602 
L 100.156069 80.310372 
L 104.543292 81.805593 
L 108.930516 77.319929 
L 113.31774 70.591434 
L 117.704963 86.291257 
L 122.092187 93.019752 
L 126.47941 93.767363 
L 130.866634 94.514973 
L 135.253857 94.514973 
L 139.641081 94.514973 
L 144.028305 93.767363 
L 148.415528 93.019752 
L 152.802752 93.019752 
L 157.189975 93.767363 
L 161.577199 93.019752 
L 165.964423 93.767363 
L 170.351646 94.514973 
L 174.73887 93.019752 
L 179.126093 93.767363 
L 183.513317 94.514973 
L 187.900541 93.767363 
L 192.287764 93.019752 
L 196.674988 92.272142 
L 201.062211 93.019752 
L 205.449435 94.514973 
L 209.836658 97.505416 
L 214.223882 101.243469 
L 218.611106 101.99108 
L 222.998329 101.99108 
L 227.385553 101.243469 
L 231.772776 102.73869 
L 236.16 101.99108 
L 240.547224 101.99108 
L 244.934447 101.99108 
L 249.321671 101.99108 
L 253.708894 101.99108 
L 258.096118 102.73869 
L 262.483342 101.99108 
L 266.870565 101.99108 
L 271.257789 101.99108 
L 275.645012 102.73869 
L 280.032236 101.99108 
L 284.419459 101.99108 
L 288.806683 101.99108 
L 293.193907 101.243469 
L 297.58113 102.73869 
L 301.968354 101.99108 
L 306.355577 101.99108 
L 310.742801 102.73869 
L 315.130025 101.243469 
L 319.517248 102.73869 
L 323.904472 102.73869 
L 328.291695 101.99108 
L 332.678919 101.99108 
L 337.066143 101.99108 
L 341.453366 101.99108 
L 345.84059 101.99108 
L 350.227813 101.243469 
L 354.615037 101.99108 
L 359.00226 101.243469 
L 363.389484 101.243469 
L 367.776708 101.243469 
L 372.163931 101.243469 
L 376.551155 101.243469 
L 380.938378 101.99108 
L 385.325602 100.495858 
L 389.712826 101.99108 
L 394.100049 101.99108 
L 398.487273 101.99108 
L 398.487273 78.81515 
L 398.487273 78.81515 
L 394.100049 79.562761 
L 389.712826 79.562761 
L 385.325602 78.06754 
L 380.938378 79.562761 
L 376.551155 78.81515 
L 372.163931 78.81515 
L 367.776708 78.81515 
L 363.389484 78.81515 
L 359.00226 78.81515 
L 354.615037 79.562761 
L 350.227813 78.81515 
L 345.84059 79.562761 
L 341.453366 79.562761 
L 337.066143 78.81515 
L 332.678919 79.562761 
L 328.291695 79.562761 
L 323.904472 79.562761 
L 319.517248 79.562761 
L 315.130025 78.81515 
L 310.742801 79.562761 
L 306.355577 79.562761 
L 301.968354 79.562761 
L 297.58113 79.562761 
L 293.193907 78.81515 
L 288.806683 79.562761 
L 284.419459 79.562761 
L 280.032236 79.562761 
L 275.645012 79.562761 
L 271.257789 79.562761 
L 266.870565 79.562761 
L 262.483342 79.562761 
L 258.096118 80.310372 
L 253.708894 79.562761 
L 249.321671 79.562761 
L 244.934447 79.562761 
L 240.547224 79.562761 
L 236.16 79.562761 
L 231.772776 80.310372 
L 227.385553 78.81515 
L 222.998329 79.562761 
L 218.611106 79.562761 
L 214.223882 78.06754 
L 209.836658 75.077097 
L 205.449435 70.591434 
L 201.062211 69.843823 
L 196.674988 69.843823 
L 192.287764 69.843823 
L 187.900541 70.591434 
L 183.513317 71.339044 
L 179.126093 69.843823 
L 174.73887 70.591434 
L 170.351646 70.591434 
L 165.964423 70.591434 
L 161.577199 69.843823 
L 157.189975 69.843823 
L 152.802752 70.591434 
L 148.415528 70.591434 
L 144.028305 71.339044 
L 139.641081 71.339044 
L 135.253857 72.086655 
L 130.866634 71.339044 
L 126.47941 71.339044 
L 122.092187 69.843823 
L 117.704963 64.610549 
L 113.31774 54.144 
L 108.930516 75.824708 
L 104.543292 81.805593 
L 100.156069 80.310372 
L 95.768845 68.348602 
L 91.381622 80.310372 
L 86.994398 82.553204 
L 82.607174 83.300814 
L 78.219951 83.300814 
L 73.832727 83.300814 
z
" clip-path="url(#pb419c45d54)" style="fill: #17becf"/>
   </g>
   <g id="PolyCollection_11">
    <path d="M 73.832727 83.300814 
L 73.832727 83.300814 
L 78.219951 83.300814 
L 82.607174 83.300814 
L 86.994398 82.553204 
L 91.381622 80.310372 
L 95.768845 68.348602 
L 100.156069 80.310372 
L 104.543292 81.805593 
L 108.930516 75.824708 
L 113.31774 54.144 
L 117.704963 64.610549 
L 122.092187 69.843823 
L 126.47941 71.339044 
L 130.866634 71.339044 
L 135.253857 72.086655 
L 139.641081 71.339044 
L 144.028305 71.339044 
L 148.415528 70.591434 
L 152.802752 70.591434 
L 157.189975 69.843823 
L 161.577199 69.843823 
L 165.964423 70.591434 
L 170.351646 70.591434 
L 174.73887 70.591434 
L 179.126093 69.843823 
L 183.513317 71.339044 
L 187.900541 70.591434 
L 192.287764 69.843823 
L 196.674988 69.843823 
L 201.062211 69.843823 
L 205.449435 70.591434 
L 209.836658 75.077097 
L 214.223882 78.06754 
L 218.611106 79.562761 
L 222.998329 79.562761 
L 227.385553 78.81515 
L 231.772776 80.310372 
L 236.16 79.562761 
L 240.547224 79.562761 
L 244.934447 79.562761 
L 249.321671 79.562761 
L 253.708894 79.562761 
L 258.096118 80.310372 
L 262.483342 79.562761 
L 266.870565 79.562761 
L 271.257789 79.562761 
L 275.645012 79.562761 
L 280.032236 79.562761 
L 284.419459 79.562761 
L 288.806683 79.562761 
L 293.193907 78.81515 
L 297.58113 79.562761 
L 301.968354 79.562761 
L 306.355577 79.562761 
L 310.742801 79.562761 
L 315.130025 78.81515 
L 319.517248 79.562761 
L 323.904472 79.562761 
L 328.291695 79.562761 
L 332.678919 79.562761 
L 337.066143 78.81515 
L 341.453366 79.562761 
L 345.84059 79.562761 
L 350.227813 78.81515 
L 354.615037 79.562761 
L 359.00226 78.81515 
L 363.389484 78.81515 
L 367.776708 78.81515 
L 372.163931 78.81515 
L 376.551155 78.81515 
L 380.938378 79.562761 
L 385.325602 78.06754 
L 389.712826 79.562761 
L 394.100049 79.562761 
L 398.487273 78.81515 
L 398.487273 56.386832 
L 398.487273 56.386832 
L 394.100049 57.134442 
L 389.712826 57.134442 
L 385.325602 55.639221 
L 380.938378 57.134442 
L 376.551155 56.386832 
L 372.163931 56.386832 
L 367.776708 56.386832 
L 363.389484 56.386832 
L 359.00226 56.386832 
L 354.615037 57.134442 
L 350.227813 56.386832 
L 345.84059 57.134442 
L 341.453366 57.134442 
L 337.066143 56.386832 
L 332.678919 57.134442 
L 328.291695 57.134442 
L 323.904472 57.134442 
L 319.517248 57.134442 
L 315.130025 56.386832 
L 310.742801 57.134442 
L 306.355577 57.134442 
L 301.968354 57.134442 
L 297.58113 57.134442 
L 293.193907 56.386832 
L 288.806683 57.134442 
L 284.419459 57.134442 
L 280.032236 57.134442 
L 275.645012 57.134442 
L 271.257789 57.134442 
L 266.870565 57.134442 
L 262.483342 57.134442 
L 258.096118 57.882053 
L 253.708894 57.134442 
L 249.321671 57.134442 
L 244.934447 57.134442 
L 240.547224 57.134442 
L 236.16 57.134442 
L 231.772776 57.882053 
L 227.385553 56.386832 
L 222.998329 57.134442 
L 218.611106 57.134442 
L 214.223882 55.639221 
L 209.836658 54.144 
L 205.449435 69.096212 
L 201.062211 69.843823 
L 196.674988 69.843823 
L 192.287764 69.843823 
L 187.900541 70.591434 
L 183.513317 71.339044 
L 179.126093 69.843823 
L 174.73887 70.591434 
L 170.351646 70.591434 
L 165.964423 70.591434 
L 161.577199 69.843823 
L 157.189975 69.843823 
L 152.802752 70.591434 
L 148.415528 70.591434 
L 144.028305 71.339044 
L 139.641081 71.339044 
L 135.253857 72.086655 
L 130.866634 71.339044 
L 126.47941 71.339044 
L 122.092187 69.843823 
L 117.704963 64.610549 
L 113.31774 54.144 
L 108.930516 75.824708 
L 104.543292 81.805593 
L 100.156069 80.310372 
L 95.768845 68.348602 
L 91.381622 80.310372 
L 86.994398 82.553204 
L 82.607174 83.300814 
L 78.219951 83.300814 
L 73.832727 83.300814 
z
" clip-path="url(#pb419c45d54)" style="fill: #1f77b4"/>
   </g>
   <g id="matplotlib.axis_1">
    <g id="xtick_1">
     <g id="line2d_1">
      <defs>
       <path id="m2dabf01871" d="M 0 0 
L 0 3.5 
" style="stroke: #000000; stroke-width: 0.8"/>
      </defs>
      <g>
       <use xlink:href="#m2dabf01871" x="73.832727" y="307.584" style="stroke: #000000; stroke-width: 0.8"/>
      </g>
     </g>
     <g id="text_1">
      <!-- 0 -->
      <g transform="translate(70.651477 322.182437)scale(0.1 -0.1)">
       <defs>
        <path id="DejaVuSans-30" d="M 2034 4250 
Q 1547 4250 1301 3770 
Q 1056 3291 1056 2328 
Q 1056 1369 1301 889 
Q 1547 409 2034 409 
Q 2525 409 2770 889 
Q 3016 1369 3016 2328 
Q 3016 3291 2770 3770 
Q 2525 4250 2034 4250 
z
M 2034 4750 
Q 2819 4750 3233 4129 
Q 3647 3509 3647 2328 
Q 3647 1150 3233 529 
Q 2819 -91 2034 -91 
Q 1250 -91 836 529 
Q 422 1150 422 2328 
Q 422 3509 836 4129 
Q 1250 4750 2034 4750 
z
" transform="scale(0.015625)"/>
       </defs>
       <use xlink:href="#DejaVuSans-30"/>
      </g>
     </g>
    </g>
    <g id="xtick_2">
     <g id="line2d_2">
      <g>
       <use xlink:href="#m2dabf01871" x="117.704963" y="307.584" style="stroke: #000000; stroke-width: 0.8"/>
      </g>
     </g>
     <g id="text_2">
      <!-- 10 -->
      <g transform="translate(111.342463 322.182437)scale(0.1 -0.1)">
       <defs>
        <path id="DejaVuSans-31" d="M 794 531 
L 1825 531 
L 1825 4091 
L 703 3866 
L 703 4441 
L 1819 4666 
L 2450 4666 
L 2450 531 
L 3481 531 
L 3481 0 
L 794 0 
L 794 531 
z
" transform="scale(0.015625)"/>
       </defs>
       <use xlink:href="#DejaVuSans-31"/>
       <use xlink:href="#DejaVuSans-30" x="63.623047"/>
      </g>
     </g>
    </g>
    <g id="xtick_3">
     <g id="line2d_3">
      <g>
       <use xlink:href="#m2dabf01871" x="161.577199" y="307.584" style="stroke: #000000; stroke-width: 0.8"/>
      </g>
     </g>
     <g id="text_3">
      <!-- 20 -->
      <g transform="translate(155.214699 322.182437)scale(0.1 -0.1)">
       <defs>
        <path id="DejaVuSans-32" d="M 1228 531 
L 3431 531 
L 3431 0 
L 469 0 
L 469 531 
Q 828 903 1448 1529 
Q 2069 2156 2228 2338 
Q 2531 2678 2651 2914 
Q 2772 3150 2772 3378 
Q 2772 3750 2511 3984 
Q 2250 4219 1831 4219 
Q 1534 4219 1204 4116 
Q 875 4013 500 3803 
L 500 4441 
Q 881 4594 1212 4672 
Q 1544 4750 1819 4750 
Q 2544 4750 2975 4387 
Q 3406 4025 3406 3419 
Q 3406 3131 3298 2873 
Q 3191 2616 2906 2266 
Q 2828 2175 2409 1742 
Q 1991 1309 1228 531 
z
" transform="scale(0.015625)"/>
       </defs>
       <use xlink:href="#DejaVuSans-32"/>
       <use xlink:href="#DejaVuSans-30" x="63.623047"/>
      </g>
     </g>
    </g>
    <g id="xtick_4">
     <g id="line2d_4">
      <g>
       <use xlink:href="#m2dabf01871" x="205.449435" y="307.584" style="stroke: #000000; stroke-width: 0.8"/>
      </g>
     </g>
     <g id="text_4">
      <!-- 30 -->
      <g transform="translate(199.086935 322.182437)scale(0.1 -0.1)">
       <defs>
        <path id="DejaVuSans-33" d="M 2597 2516 
Q 3050 2419 3304 2112 
Q 3559 1806 3559 1356 
Q 3559 666 3084 287 
Q 2609 -91 1734 -91 
Q 1441 -91 1130 -33 
Q 819 25 488 141 
L 488 750 
Q 750 597 1062 519 
Q 1375 441 1716 441 
Q 2309 441 2620 675 
Q 2931 909 2931 1356 
Q 2931 1769 2642 2001 
Q 2353 2234 1838 2234 
L 1294 2234 
L 1294 2753 
L 1863 2753 
Q 2328 2753 2575 2939 
Q 2822 3125 2822 3475 
Q 2822 3834 2567 4026 
Q 2313 4219 1838 4219 
Q 1578 4219 1281 4162 
Q 984 4106 628 3988 
L 628 4550 
Q 988 4650 1302 4700 
Q 1616 4750 1894 4750 
Q 2613 4750 3031 4423 
Q 3450 4097 3450 3541 
Q 3450 3153 3228 2886 
Q 3006 2619 2597 2516 
z
" transform="scale(0.015625)"/>
       </defs>
       <use xlink:href="#DejaVuSans-33"/>
       <use xlink:href="#DejaVuSans-30" x="63.623047"/>
      </g>
     </g>
    </g>
    <g id="xtick_5">
     <g id="line2d_5">
      <g>
       <use xlink:href="#m2dabf01871" x="249.321671" y="307.584" style="stroke: #000000; stroke-width: 0.8"/>
      </g>
     </g>
     <g id="text_5">
      <!-- 40 -->
      <g transform="translate(242.959171 322.182437)scale(0.1 -0.1)">
       <defs>
        <path id="DejaVuSans-34" d="M 2419 4116 
L 825 1625 
L 2419 1625 
L 2419 4116 
z
M 2253 4666 
L 3047 4666 
L 3047 1625 
L 3713 1625 
L 3713 1100 
L 3047 1100 
L 3047 0 
L 2419 0 
L 2419 1100 
L 313 1100 
L 313 1709 
L 2253 4666 
z
" transform="scale(0.015625)"/>
       </defs>
       <use xlink:href="#DejaVuSans-34"/>
       <use xlink:href="#DejaVuSans-30" x="63.623047"/>
      </g>
     </g>
    </g>
    <g id="xtick_6">
     <g id="line2d_6">
      <g>
       <use xlink:href="#m2dabf01871" x="293.193907" y="307.584" style="stroke: #000000; stroke-width: 0.8"/>
      </g>
     </g>
     <g id="text_6">
      <!-- 50 -->
      <g transform="translate(286.831407 322.182437)scale(0.1 -0.1)">
       <defs>
        <path id="DejaVuSans-35" d="M 691 4666 
L 3169 4666 
L 3169 4134 
L 1269 4134 
L 1269 2991 
Q 1406 3038 1543 3061 
Q 1681 3084 1819 3084 
Q 2600 3084 3056 2656 
Q 3513 2228 3513 1497 
Q 3513 744 3044 326 
Q 2575 -91 1722 -91 
Q 1428 -91 1123 -41 
Q 819 9 494 109 
L 494 744 
Q 775 591 1075 516 
Q 1375 441 1709 441 
Q 2250 441 2565 725 
Q 2881 1009 2881 1497 
Q 2881 1984 2565 2268 
Q 2250 2553 1709 2553 
Q 1456 2553 1204 2497 
Q 953 2441 691 2322 
L 691 4666 
z
" transform="scale(0.015625)"/>
       </defs>
       <use xlink:href="#DejaVuSans-35"/>
       <use xlink:href="#DejaVuSans-30" x="63.623047"/>
      </g>
     </g>
    </g>
    <g id="xtick_7">
     <g id="line2d_7">
      <g>
       <use xlink:href="#m2dabf01871" x="337.066143" y="307.584" style="stroke: #000000; stroke-width: 0.8"/>
      </g>
     </g>
     <g id="text_7">
      <!-- 60 -->
      <g transform="translate(330.703643 322.182437)scale(0.1 -0.1)">
       <defs>
        <path id="DejaVuSans-36" d="M 2113 2584 
Q 1688 2584 1439 2293 
Q 1191 2003 1191 1497 
Q 1191 994 1439 701 
Q 1688 409 2113 409 
Q 2538 409 2786 701 
Q 3034 994 3034 1497 
Q 3034 2003 2786 2293 
Q 2538 2584 2113 2584 
z
M 3366 4563 
L 3366 3988 
Q 3128 4100 2886 4159 
Q 2644 4219 2406 4219 
Q 1781 4219 1451 3797 
Q 1122 3375 1075 2522 
Q 1259 2794 1537 2939 
Q 1816 3084 2150 3084 
Q 2853 3084 3261 2657 
Q 3669 2231 3669 1497 
Q 3669 778 3244 343 
Q 2819 -91 2113 -91 
Q 1303 -91 875 529 
Q 447 1150 447 2328 
Q 447 3434 972 4092 
Q 1497 4750 2381 4750 
Q 2619 4750 2861 4703 
Q 3103 4656 3366 4563 
z
" transform="scale(0.015625)"/>
       </defs>
       <use xlink:href="#DejaVuSans-36"/>
       <use xlink:href="#DejaVuSans-30" x="63.623047"/>
      </g>
     </g>
    </g>
    <g id="xtick_8">
     <g id="line2d_8">
      <g>
       <use xlink:href="#m2dabf01871" x="380.938378" y="307.584" style="stroke: #000000; stroke-width: 0.8"/>
      </g>
     </g>
     <g id="text_8">
      <!-- 70 -->
      <g transform="translate(374.575878 322.182437)scale(0.1 -0.1)">
       <defs>
        <path id="DejaVuSans-37" d="M 525 4666 
L 3525 4666 
L 3525 4397 
L 1831 0 
L 1172 0 
L 2766 4134 
L 525 4134 
L 525 4666 
z
" transform="scale(0.015625)"/>
       </defs>
       <use xlink:href="#DejaVuSans-37"/>
       <use xlink:href="#DejaVuSans-30" x="63.623047"/>
      </g>
     </g>
    </g>
    <g id="text_9">
     <!-- Generations -->
     <g transform="translate(205.662344 335.860562)scale(0.1 -0.1)">
      <defs>
       <path id="DejaVuSans-47" d="M 3809 666 
L 3809 1919 
L 2778 1919 
L 2778 2438 
L 4434 2438 
L 4434 434 
Q 4069 175 3628 42 
Q 3188 -91 2688 -91 
Q 1594 -91 976 548 
Q 359 1188 359 2328 
Q 359 3472 976 4111 
Q 1594 4750 2688 4750 
Q 3144 4750 3555 4637 
Q 3966 4525 4313 4306 
L 4313 3634 
Q 3963 3931 3569 4081 
Q 3175 4231 2741 4231 
Q 1884 4231 1454 3753 
Q 1025 3275 1025 2328 
Q 1025 1384 1454 906 
Q 1884 428 2741 428 
Q 3075 428 3337 486 
Q 3600 544 3809 666 
z
" transform="scale(0.015625)"/>
       <path id="DejaVuSans-65" d="M 3597 1894 
L 3597 1613 
L 953 1613 
Q 991 1019 1311 708 
Q 1631 397 2203 397 
Q 2534 397 2845 478 
Q 3156 559 3463 722 
L 3463 178 
Q 3153 47 2828 -22 
Q 2503 -91 2169 -91 
Q 1331 -91 842 396 
Q 353 884 353 1716 
Q 353 2575 817 3079 
Q 1281 3584 2069 3584 
Q 2775 3584 3186 3129 
Q 3597 2675 3597 1894 
z
M 3022 2063 
Q 3016 2534 2758 2815 
Q 2500 3097 2075 3097 
Q 1594 3097 1305 2825 
Q 1016 2553 972 2059 
L 3022 2063 
z
" transform="scale(0.015625)"/>
       <path id="DejaVuSans-6e" d="M 3513 2113 
L 3513 0 
L 2938 0 
L 2938 2094 
Q 2938 2591 2744 2837 
Q 2550 3084 2163 3084 
Q 1697 3084 1428 2787 
Q 1159 2491 1159 1978 
L 1159 0 
L 581 0 
L 581 3500 
L 1159 3500 
L 1159 2956 
Q 1366 3272 1645 3428 
Q 1925 3584 2291 3584 
Q 2894 3584 3203 3211 
Q 3513 2838 3513 2113 
z
" transform="scale(0.015625)"/>
       <path id="DejaVuSans-72" d="M 2631 2963 
Q 2534 3019 2420 3045 
Q 2306 3072 2169 3072 
Q 1681 3072 1420 2755 
Q 1159 2438 1159 1844 
L 1159 0 
L 581 0 
L 581 3500 
L 1159 3500 
L 1159 2956 
Q 1341 3275 1631 3429 
Q 1922 3584 2338 3584 
Q 2397 3584 2469 3576 
Q 2541 3569 2628 3553 
L 2631 2963 
z
" transform="scale(0.015625)"/>
       <path id="DejaVuSans-61" d="M 2194 1759 
Q 1497 1759 1228 1600 
Q 959 1441 959 1056 
Q 959 750 1161 570 
Q 1363 391 1709 391 
Q 2188 391 2477 730 
Q 2766 1069 2766 1631 
L 2766 1759 
L 2194 1759 
z
M 3341 1997 
L 3341 0 
L 2766 0 
L 2766 531 
Q 2569 213 2275 61 
Q 1981 -91 1556 -91 
Q 1019 -91 701 211 
Q 384 513 384 1019 
Q 384 1609 779 1909 
Q 1175 2209 1959 2209 
L 2766 2209 
L 2766 2266 
Q 2766 2663 2505 2880 
Q 2244 3097 1772 3097 
Q 1472 3097 1187 3025 
Q 903 2953 641 2809 
L 641 3341 
Q 956 3463 1253 3523 
Q 1550 3584 1831 3584 
Q 2591 3584 2966 3190 
Q 3341 2797 3341 1997 
z
" transform="scale(0.015625)"/>
       <path id="DejaVuSans-74" d="M 1172 4494 
L 1172 3500 
L 2356 3500 
L 2356 3053 
L 1172 3053 
L 1172 1153 
Q 1172 725 1289 603 
Q 1406 481 1766 481 
L 2356 481 
L 2356 0 
L 1766 0 
Q 1100 0 847 248 
Q 594 497 594 1153 
L 594 3053 
L 172 3053 
L 172 3500 
L 594 3500 
L 594 4494 
L 1172 4494 
z
" transform="scale(0.015625)"/>
       <path id="DejaVuSans-69" d="M 603 3500 
L 1178 3500 
L 1178 0 
L 603 0 
L 603 3500 
z
M 603 4863 
L 1178 4863 
L 1178 4134 
L 603 4134 
L 603 4863 
z
" transform="scale(0.015625)"/>
       <path id="DejaVuSans-6f" d="M 1959 3097 
Q 1497 3097 1228 2736 
Q 959 2375 959 1747 
Q 959 1119 1226 758 
Q 1494 397 1959 397 
Q 2419 397 2687 759 
Q 2956 1122 2956 1747 
Q 2956 2369 2687 2733 
Q 2419 3097 1959 3097 
z
M 1959 3584 
Q 2709 3584 3137 3096 
Q 3566 2609 3566 1747 
Q 3566 888 3137 398 
Q 2709 -91 1959 -91 
Q 1206 -91 779 398 
Q 353 888 353 1747 
Q 353 2609 779 3096 
Q 1206 3584 1959 3584 
z
" transform="scale(0.015625)"/>
       <path id="DejaVuSans-73" d="M 2834 3397 
L 2834 2853 
Q 2591 2978 2328 3040 
Q 2066 3103 1784 3103 
Q 1356 3103 1142 2972 
Q 928 2841 928 2578 
Q 928 2378 1081 2264 
Q 1234 2150 1697 2047 
L 1894 2003 
Q 2506 1872 2764 1633 
Q 3022 1394 3022 966 
Q 3022 478 2636 193 
Q 2250 -91 1575 -91 
Q 1294 -91 989 -36 
Q 684 19 347 128 
L 347 722 
Q 666 556 975 473 
Q 1284 391 1588 391 
Q 1994 391 2212 530 
Q 2431 669 2431 922 
Q 2431 1156 2273 1281 
Q 2116 1406 1581 1522 
L 1381 1569 
Q 847 1681 609 1914 
Q 372 2147 372 2553 
Q 372 3047 722 3315 
Q 1072 3584 1716 3584 
Q 2034 3584 2315 3537 
Q 2597 3491 2834 3397 
z
" transform="scale(0.015625)"/>
      </defs>
      <use xlink:href="#DejaVuSans-47"/>
      <use xlink:href="#DejaVuSans-65" x="77.490234"/>
      <use xlink:href="#DejaVuSans-6e" x="139.013672"/>
      <use xlink:href="#DejaVuSans-65" x="202.392578"/>
      <use xlink:href="#DejaVuSans-72" x="263.916016"/>
      <use xlink:href="#DejaVuSans-61" x="305.029297"/>
      <use xlink:href="#DejaVuSans-74" x="366.308594"/>
      <use xlink:href="#DejaVuSans-69" x="405.517578"/>
      <use xlink:href="#DejaVuSans-6f" x="433.300781"/>
      <use xlink:href="#DejaVuSans-6e" x="494.482422"/>
      <use xlink:href="#DejaVuSans-73" x="557.861328"/>
     </g>
    </g>
   </g>
   <g id="matplotlib.axis_2">
    <g id="ytick_1">
     <g id="line2d_9">
      <defs>
       <path id="md70a4092c0" d="M 0 0 
L -3.5 0 
" style="stroke: #000000; stroke-width: 0.8"/>
      </defs>
      <g>
       <use xlink:href="#md70a4092c0" x="57.6" y="307.584" style="stroke: #000000; stroke-width: 0.8"/>
      </g>
     </g>
     <g id="text_10">
      <!-- 0 -->
      <g transform="translate(44.2375 311.383219)scale(0.1 -0.1)">
       <use xlink:href="#DejaVuSans-30"/>
      </g>
     </g>
    </g>
    <g id="ytick_2">
     <g id="line2d_10">
      <g>
       <use xlink:href="#md70a4092c0" x="57.6" y="270.203469" style="stroke: #000000; stroke-width: 0.8"/>
      </g>
     </g>
     <g id="text_11">
      <!-- 50 -->
      <g transform="translate(37.875 274.002688)scale(0.1 -0.1)">
       <use xlink:href="#DejaVuSans-35"/>
       <use xlink:href="#DejaVuSans-30" x="63.623047"/>
      </g>
     </g>
    </g>
    <g id="ytick_3">
     <g id="line2d_11">
      <g>
       <use xlink:href="#md70a4092c0" x="57.6" y="232.822938" style="stroke: #000000; stroke-width: 0.8"/>
      </g>
     </g>
     <g id="text_12">
      <!-- 100 -->
      <g transform="translate(31.5125 236.622157)scale(0.1 -0.1)">
       <use xlink:href="#DejaVuSans-31"/>
       <use xlink:href="#DejaVuSans-30" x="63.623047"/>
       <use xlink:href="#DejaVuSans-30" x="127.246094"/>
      </g>
     </g>
    </g>
    <g id="ytick_4">
     <g id="line2d_12">
      <g>
       <use xlink:href="#md70a4092c0" x="57.6" y="195.442407" style="stroke: #000000; stroke-width: 0.8"/>
      </g>
     </g>
     <g id="text_13">
      <!-- 150 -->
      <g transform="translate(31.5125 199.241626)scale(0.1 -0.1)">
       <use xlink:href="#DejaVuSans-31"/>
       <use xlink:href="#DejaVuSans-35" x="63.623047"/>
       <use xlink:href="#DejaVuSans-30" x="127.246094"/>
      </g>
     </g>
    </g>
    <g id="ytick_5">
     <g id="line2d_13">
      <g>
       <use xlink:href="#md70a4092c0" x="57.6" y="158.061876" style="stroke: #000000; stroke-width: 0.8"/>
      </g>
     </g>
     <g id="text_14">
      <!-- 200 -->
      <g transform="translate(31.5125 161.861095)scale(0.1 -0.1)">
       <use xlink:href="#DejaVuSans-32"/>
       <use xlink:href="#DejaVuSans-30" x="63.623047"/>
       <use xlink:href="#DejaVuSans-30" x="127.246094"/>
      </g>
     </g>
    </g>
    <g id="ytick_6">
     <g id="line2d_14">
      <g>
       <use xlink:href="#md70a4092c0" x="57.6" y="120.681345" style="stroke: #000000; stroke-width: 0.8"/>
      </g>
     </g>
     <g id="text_15">
      <!-- 250 -->
      <g transform="translate(31.5125 124.480564)scale(0.1 -0.1)">
       <use xlink:href="#DejaVuSans-32"/>
       <use xlink:href="#DejaVuSans-35" x="63.623047"/>
       <use xlink:href="#DejaVuSans-30" x="127.246094"/>
      </g>
     </g>
    </g>
    <g id="ytick_7">
     <g id="line2d_15">
      <g>
       <use xlink:href="#md70a4092c0" x="57.6" y="83.300814" style="stroke: #000000; stroke-width: 0.8"/>
      </g>
     </g>
     <g id="text_16">
      <!-- 300 -->
      <g transform="translate(31.5125 87.100033)scale(0.1 -0.1)">
       <use xlink:href="#DejaVuSans-33"/>
       <use xlink:href="#DejaVuSans-30" x="63.623047"/>
       <use xlink:href="#DejaVuSans-30" x="127.246094"/>
      </g>
     </g>
    </g>
    <g id="ytick_8">
     <g id="line2d_16">
      <g>
       <use xlink:href="#md70a4092c0" x="57.6" y="45.920283" style="stroke: #000000; stroke-width: 0.8"/>
      </g>
     </g>
     <g id="text_17">
      <!-- 350 -->
      <g transform="translate(31.5125 49.719502)scale(0.1 -0.1)">
       <use xlink:href="#DejaVuSans-33"/>
       <use xlink:href="#DejaVuSans-35" x="63.623047"/>
       <use xlink:href="#DejaVuSans-30" x="127.246094"/>
      </g>
     </g>
    </g>
    <g id="text_18">
     <!-- Size per Species -->
     <g transform="translate(25.432812 215.520969)rotate(-90)scale(0.1 -0.1)">
      <defs>
       <path id="DejaVuSans-53" d="M 3425 4513 
L 3425 3897 
Q 3066 4069 2747 4153 
Q 2428 4238 2131 4238 
Q 1616 4238 1336 4038 
Q 1056 3838 1056 3469 
Q 1056 3159 1242 3001 
Q 1428 2844 1947 2747 
L 2328 2669 
Q 3034 2534 3370 2195 
Q 3706 1856 3706 1288 
Q 3706 609 3251 259 
Q 2797 -91 1919 -91 
Q 1588 -91 1214 -16 
Q 841 59 441 206 
L 441 856 
Q 825 641 1194 531 
Q 1563 422 1919 422 
Q 2459 422 2753 634 
Q 3047 847 3047 1241 
Q 3047 1584 2836 1778 
Q 2625 1972 2144 2069 
L 1759 2144 
Q 1053 2284 737 2584 
Q 422 2884 422 3419 
Q 422 4038 858 4394 
Q 1294 4750 2059 4750 
Q 2388 4750 2728 4690 
Q 3069 4631 3425 4513 
z
" transform="scale(0.015625)"/>
       <path id="DejaVuSans-7a" d="M 353 3500 
L 3084 3500 
L 3084 2975 
L 922 459 
L 3084 459 
L 3084 0 
L 275 0 
L 275 525 
L 2438 3041 
L 353 3041 
L 353 3500 
z
" transform="scale(0.015625)"/>
       <path id="DejaVuSans-20" transform="scale(0.015625)"/>
       <path id="DejaVuSans-70" d="M 1159 525 
L 1159 -1331 
L 581 -1331 
L 581 3500 
L 1159 3500 
L 1159 2969 
Q 1341 3281 1617 3432 
Q 1894 3584 2278 3584 
Q 2916 3584 3314 3078 
Q 3713 2572 3713 1747 
Q 3713 922 3314 415 
Q 2916 -91 2278 -91 
Q 1894 -91 1617 61 
Q 1341 213 1159 525 
z
M 3116 1747 
Q 3116 2381 2855 2742 
Q 2594 3103 2138 3103 
Q 1681 3103 1420 2742 
Q 1159 2381 1159 1747 
Q 1159 1113 1420 752 
Q 1681 391 2138 391 
Q 2594 391 2855 752 
Q 3116 1113 3116 1747 
z
" transform="scale(0.015625)"/>
       <path id="DejaVuSans-63" d="M 3122 3366 
L 3122 2828 
Q 2878 2963 2633 3030 
Q 2388 3097 2138 3097 
Q 1578 3097 1268 2742 
Q 959 2388 959 1747 
Q 959 1106 1268 751 
Q 1578 397 2138 397 
Q 2388 397 2633 464 
Q 2878 531 3122 666 
L 3122 134 
Q 2881 22 2623 -34 
Q 2366 -91 2075 -91 
Q 1284 -91 818 406 
Q 353 903 353 1747 
Q 353 2603 823 3093 
Q 1294 3584 2113 3584 
Q 2378 3584 2631 3529 
Q 2884 3475 3122 3366 
z
" transform="scale(0.015625)"/>
      </defs>
      <use xlink:href="#DejaVuSans-53"/>
      <use xlink:href="#DejaVuSans-69" x="63.476562"/>
      <use xlink:href="#DejaVuSans-7a" x="91.259766"/>
      <use xlink:href="#DejaVuSans-65" x="143.75"/>
      <use xlink:href="#DejaVuSans-20" x="205.273438"/>
      <use xlink:href="#DejaVuSans-70" x="237.060547"/>
      <use xlink:href="#DejaVuSans-65" x="300.537109"/>
      <use xlink:href="#DejaVuSans-72" x="362.060547"/>
      <use xlink:href="#DejaVuSans-20" x="403.173828"/>
      <use xlink:href="#DejaVuSans-53" x="434.960938"/>
      <use xlink:href="#DejaVuSans-70" x="498.4375"/>
      <use xlink:href="#DejaVuSans-65" x="561.914062"/>
      <use xlink:href="#DejaVuSans-63" x="623.4375"/>
      <use xlink:href="#DejaVuSans-69" x="678.417969"/>
      <use xlink:href="#DejaVuSans-65" x="706.201172"/>
      <use xlink:href="#DejaVuSans-73" x="767.724609"/>
     </g>
    </g>
   </g>
   <g id="patch_3">
    <path d="M 57.6 307.584 
L 57.6 41.472 
" style="fill: none; stroke: #000000; stroke-width: 0.8; stroke-linejoin: miter; stroke-linecap: square"/>
   </g>
   <g id="patch_4">
    <path d="M 414.72 307.584 
L 414.72 41.472 
" style="fill: none; stroke: #000000; stroke-width: 0.8; stroke-linejoin: miter; stroke-linecap: square"/>
   </g>
   <g id="patch_5">
    <path d="M 57.6 307.584 
L 414.72 307.584 
" style="fill: none; stroke: #000000; stroke-width: 0.8; stroke-linejoin: miter; stroke-linecap: square"/>
   </g>
   <g id="patch_6">
    <path d="M 57.6 41.472 
L 414.72 41.472 
" style="fill: none; stroke: #000000; stroke-width: 0.8; stroke-linejoin: miter; stroke-linecap: square"/>
   </g>
   <g id="text_19">
    <!-- Speciation -->
    <g transform="translate(204.714375 35.472)scale(0.12 -0.12)">
     <use xlink:href="#DejaVuSans-53"/>
     <use xlink:href="#DejaVuSans-70" x="63.476562"/>
     <use xlink:href="#DejaVuSans-65" x="126.953125"/>
     <use xlink:href="#DejaVuSans-63" x="188.476562"/>
     <use xlink:href="#DejaVuSans-69" x="243.457031"/>
     <use xlink:href="#DejaVuSans-61" x="271.240234"/>
     <use xlink:href="#DejaVuSans-74" x="332.519531"/>
     <use xlink:href="#DejaVuSans-69" x="371.728516"/>
     <use xlink:href="#DejaVuSans-6f" x="399.511719"/>
     <use xlink:href="#DejaVuSans-6e" x="460.693359"/>
    </g>
   </g>
  </g>
 </g>
 <defs>
  <clipPath id="pb419c45d54">
   <rect x="57.6" y="41.472" width="357.12" height="266.112"/>
  </clipPath>
 </defs>
</svg>
